<?xml version="1.0" encoding="UTF-8"?>
<svg version="1.1" xmlns="http://www.w3.org/2000/svg" width="512" height="512">
<path d="M0 0 C1.07865326 -0.00623996 2.15730652 -0.01247993 3.26864624 -0.01890898 C6.89546342 -0.03490751 10.52161492 -0.02220737 14.1484375 -0.00964355 C16.74349359 -0.0150616 19.3385466 -0.02218246 21.93359375 -0.03088379 C28.25779314 -0.04868452 34.5818028 -0.04482221 40.90600967 -0.03323323 C46.04510304 -0.02420524 51.18414317 -0.02297214 56.32324219 -0.02732849 C57.41973996 -0.02824789 57.41973996 -0.02824789 58.53838921 -0.02918586 C60.02332816 -0.03046474 61.5082671 -0.0317616 62.99320602 -0.03307623 C76.92247659 -0.04448657 90.85164192 -0.03136123 104.78089523 -0.00987476 C116.73679537 0.00799666 128.69254017 0.00489268 140.6484375 -0.0135498 C154.52733926 -0.03494854 168.40614875 -0.04338789 182.2850647 -0.03110075 C183.76458739 -0.02982653 185.24411009 -0.02856905 186.72363281 -0.02732849 C187.81560628 -0.02640284 187.81560628 -0.02640284 188.92963982 -0.02545848 C194.06346728 -0.02200258 199.19723628 -0.02783908 204.33105469 -0.0372467 C211.23887883 -0.04962671 218.14640414 -0.04083189 225.05419922 -0.01766968 C227.59390778 -0.01236719 230.13364098 -0.01392247 232.67333984 -0.02272034 C236.13152254 -0.03359813 239.58875349 -0.02000508 243.046875 0 C244.56612076 -0.01338433 244.56612076 -0.01338433 246.11605835 -0.02703905 C252.86211103 0.04902511 252.86211103 0.04902511 256.14815903 2.32928848 C258.12388738 5.45913668 258.05155226 8.355178 257.97753906 11.93859863 C257.97812317 12.6804541 257.97870728 13.42230957 257.97930908 14.18664551 C257.97652775 16.63276359 257.94543536 19.07765504 257.9140625 21.52355957 C257.90660024 23.22177464 257.90090723 24.91999833 257.89691162 26.6182251 C257.88165401 31.08349467 257.84237139 35.5482421 257.7980957 40.01330566 C257.75714557 44.57133928 257.73890117 49.12945744 257.71875 53.68762207 C257.67587703 62.62795538 257.60762435 71.56790152 257.5234375 80.50793457 C258.66713806 80.49905212 259.81083862 80.49016968 260.98919678 80.48101807 C271.76011332 80.39998066 282.53096813 80.33999239 293.30212021 80.30068588 C298.83988893 80.27979871 304.37741183 80.25146014 309.91503906 80.20617676 C315.25777863 80.16275977 320.60028155 80.13880598 325.9431839 80.1284256 C327.9829913 80.1210268 330.02278554 80.10657889 332.06249237 80.08501434 C334.91662223 80.0560357 337.76977047 80.05197627 340.62402344 80.05383301 C341.46991028 80.0394519 342.31579712 80.0250708 343.18731689 80.01025391 C343.96691772 80.01575256 344.74651855 80.02125122 345.54974365 80.0269165 C346.22449612 80.02322933 346.89924858 80.01954216 347.59444809 80.01574326 C350.50327817 80.75794583 351.64838852 82.19598109 353.5234375 84.50793457 C354.02023149 87.33870721 354.02023149 87.33870721 354.01562881 90.68484879 C354.02359301 91.96076897 354.0315572 93.23668915 354.03976274 94.55127358 C354.02835047 95.97011874 354.01656808 97.38896095 354.00445557 98.80780029 C354.00619934 100.3126828 354.00970067 101.81756412 354.01481223 103.32243896 C354.02377435 107.46372934 354.00773185 111.60460748 353.98769999 115.74584532 C353.97045704 120.20934776 353.97626945 124.67282617 353.97930908 129.13635254 C353.98140845 136.87168148 353.96883799 144.60687567 353.94635773 152.34217072 C353.91387606 163.52614318 353.90343464 174.71005035 353.89840576 185.89406487 C353.88964709 204.03850371 353.86301598 222.18287069 353.82519531 240.32727051 C353.78849004 257.95487101 353.76017101 275.58245201 353.74316406 293.21008301 C353.74211317 294.2962985 353.74106227 295.382514 353.73997954 296.50164512 C353.73475946 301.95076439 353.72970461 307.39988381 353.72473192 312.84900331 C353.68325206 358.06869684 353.61278805 403.288312 353.5234375 448.50793457 C354.34328125 448.46152832 355.163125 448.41512207 356.0078125 448.36730957 C357.08546875 448.33121582 358.163125 448.29512207 359.2734375 448.25793457 C360.34078125 448.21152832 361.408125 448.16512207 362.5078125 448.11730957 C366.19118223 448.59443 367.27606172 449.62166488 369.5234375 452.50793457 C370.03137207 454.48059082 370.03137207 454.48059082 370.04101562 456.57043457 C370.05992859 457.75186035 370.05992859 457.75186035 370.07922363 458.95715332 C370.06707825 460.21979004 370.06707825 460.21979004 370.0546875 461.50793457 C370.0585144 462.38062988 370.06234131 463.2533252 370.06628418 464.15246582 C370.0690024 465.99492549 370.06164744 467.83742381 370.04492188 469.67980957 C370.02350998 472.49839391 370.04472551 475.31442942 370.0703125 478.13293457 C370.06766921 479.92460686 370.06254419 481.71627756 370.0546875 483.50793457 C370.06278442 484.34969238 370.07088135 485.1914502 370.07922363 486.05871582 C370.06031067 487.2401416 370.06031067 487.2401416 370.04101562 488.44543457 C370.03783325 489.13508301 370.03465088 489.82473145 370.03137207 490.53527832 C369.25678096 493.54354371 367.98008085 494.61364809 365.5234375 496.50793457 C362.69244829 496.89991082 360.25109035 497.04566005 357.42114258 497.01129913 C356.59379923 497.0171129 355.76645588 497.02292666 354.91404152 497.0289166 C352.12339235 497.04359121 349.33361247 497.02959678 346.54296875 497.01586914 C344.52946012 497.02047511 342.51595486 497.02682596 340.50245667 497.03477812 C334.95515763 497.05153634 329.40813247 497.04319561 323.86083221 497.03083324 C317.88392748 497.02181158 311.90707103 497.03573812 305.93017578 497.04675293 C294.89343682 497.06354274 283.85677354 497.06204391 272.82003403 497.05110706 C262.6249677 497.04105358 252.42993354 497.03841393 242.23486328 497.04319763 C241.55918151 497.04350317 240.88349974 497.04380871 240.18734276 497.04412351 C237.44468268 497.04536882 234.70202261 497.04664242 231.95936257 497.04796257 C206.21947725 497.06020466 180.47964782 497.04909508 154.73977113 497.02757498 C131.86033831 497.00859187 108.98099454 497.01029035 86.1015625 497.02941895 C60.40942518 497.05082722 34.71733726 497.05933654 9.02519226 497.04696989 C6.28746542 497.04568698 3.54973858 497.04443562 0.81201172 497.04319763 C0.13788998 497.04288132 -0.53623176 497.04256501 -1.23078144 497.04223912 C-11.42063214 497.03768498 -21.6104472 497.04301822 -31.80029297 497.05311584 C-43.38404933 497.06453738 -54.96772093 497.06134054 -66.5514679 497.03999287 C-72.46583021 497.02945386 -78.38001144 497.02540911 -84.29437256 497.03858948 C-89.70271887 497.05046022 -95.1107153 497.04403899 -100.51902962 497.02267927 C-102.48127965 497.01819056 -104.44355891 497.02052988 -106.40579033 497.03018242 C-109.06237646 497.04225373 -111.71774621 497.02996658 -114.37426758 497.01129913 C-115.53117127 497.02534613 -115.53117127 497.02534613 -116.71144676 497.0396769 C-120.23235823 496.98983935 -122.12359124 496.78010623 -124.95121002 494.5997653 C-126.62926144 492.29852702 -126.98117199 491.25585245 -126.99414062 488.44543457 C-127.01305359 487.26400879 -127.01305359 487.26400879 -127.03234863 486.05871582 C-127.02425171 485.21695801 -127.01615479 484.3752002 -127.0078125 483.50793457 C-127.0116394 482.63523926 -127.01546631 481.76254395 -127.01940918 480.86340332 C-127.0221274 479.02094365 -127.01477244 477.17844533 -126.99804688 475.33605957 C-126.97663498 472.51747523 -126.99785051 469.70143972 -127.0234375 466.88293457 C-127.02079421 465.09126228 -127.01566919 463.29959158 -127.0078125 461.50793457 C-127.01995789 460.24529785 -127.01995789 460.24529785 -127.03234863 458.95715332 C-127.01973999 458.16953613 -127.00713135 457.38191895 -126.99414062 456.57043457 C-126.99095825 455.88078613 -126.98777588 455.1911377 -126.98449707 454.48059082 C-126.2273079 451.53990903 -124.82758955 450.39396951 -122.4765625 448.50793457 C-119.4609375 448.11730957 -119.4609375 448.11730957 -116.2265625 448.25793457 C-115.14890625 448.29402832 -114.07125 448.33012207 -112.9609375 448.36730957 C-112.14109375 448.41371582 -111.32125 448.46012207 -110.4765625 448.50793457 C-110.47808138 447.7392405 -110.47960026 446.97054642 -110.48116517 446.17855859 C-110.57061564 400.65167579 -110.63927742 355.12480252 -110.68082382 309.5978495 C-110.68582684 304.13526052 -110.69100411 298.67267172 -110.69628906 293.21008301 C-110.6973383 292.12254847 -110.69838755 291.03501394 -110.69946858 289.91452381 C-110.71688893 272.28944732 -110.74843557 254.66442284 -110.78517368 237.03937724 C-110.8225378 218.96368282 -110.84478875 200.88801569 -110.85291648 182.81228423 C-110.85841366 171.65241206 -110.87579575 160.4926869 -110.90822837 149.33285996 C-110.92932037 141.68726888 -110.93577463 134.04175416 -110.93056801 126.39613608 C-110.92799792 121.98045857 -110.93202524 117.56503853 -110.9533844 113.14940643 C-110.97278072 109.1102033 -110.97387798 105.07143194 -110.96015808 101.03220937 C-110.95846122 99.56780545 -110.96359418 98.10337511 -110.97609523 96.63902357 C-110.99205856 94.65436133 -110.98114208 92.66953656 -110.96875381 90.68484879 C-110.9702727 89.58062207 -110.97179158 88.47639534 -110.97335649 87.33870721 C-110.36064726 83.84744007 -109.22606587 82.67183623 -106.4765625 80.50793457 C-104.54757309 80.01574326 -104.54757309 80.01574326 -102.50286865 80.0269165 C-101.72326782 80.02141785 -100.94366699 80.01591919 -100.14044189 80.01025391 C-99.29455505 80.02463501 -98.44866821 80.03901611 -97.57714844 80.05383301 C-96.67923584 80.0532489 -95.78132324 80.05266479 -94.85620117 80.05206299 C-91.89071891 80.05484789 -88.92624399 80.08595923 -85.9609375 80.11730957 C-83.90399729 80.12477051 -81.84704996 80.13046414 -79.7901001 80.13446045 C-74.37793328 80.14972829 -68.96619629 80.18902031 -63.55419922 80.23327637 C-58.03098363 80.27420408 -52.50769854 80.29246614 -46.984375 80.31262207 C-36.14824872 80.35551321 -25.31244136 80.4237787 -14.4765625 80.50793457 C-14.48544495 79.56468323 -14.49432739 78.62143188 -14.503479 77.64959717 C-14.58454941 68.76235996 -14.64452037 59.87519773 -14.68381119 50.98767471 C-14.70469015 46.41842493 -14.73301321 41.84947355 -14.77832031 37.28039551 C-14.82176738 32.87132584 -14.84569728 28.46254327 -14.85607147 24.05327606 C-14.86346493 22.3707197 -14.87790267 20.68817914 -14.89948273 19.00574493 C-14.92850253 16.64968356 -14.93251925 14.29480984 -14.93066406 11.93859863 C-14.94504517 11.24232361 -14.95942627 10.54604858 -14.97424316 9.82867432 C-14.94897879 6.8652471 -14.69502218 4.85400726 -13.10128403 2.32928848 C-8.97088786 -0.53688728 -4.9131603 -0.04328422 0 0 Z M1.5234375 16.50793457 C1.5234375 53.46793457 1.5234375 90.42793457 1.5234375 128.50793457 C80.7234375 128.50793457 159.9234375 128.50793457 241.5234375 128.50793457 C241.5234375 91.54793457 241.5234375 54.58793457 241.5234375 16.50793457 C162.3234375 16.50793457 83.1234375 16.50793457 1.5234375 16.50793457 Z M-94.4765625 96.50793457 C-94.4765625 117.62793457 -94.4765625 138.74793457 -94.4765625 160.50793457 C48.0834375 160.50793457 190.6434375 160.50793457 337.5234375 160.50793457 C337.5234375 139.38793457 337.5234375 118.26793457 337.5234375 96.50793457 C311.1234375 96.50793457 284.7234375 96.50793457 257.5234375 96.50793457 C257.31340962 110.85306839 257.31340962 110.85306839 257.13549805 125.1986084 C257.10321598 126.99574885 257.06984338 128.79287018 257.03515625 130.58996582 C257.02891235 131.52465698 257.02266846 132.45934814 257.01623535 133.42236328 C256.98632507 134.76179993 256.98632507 134.76179993 256.95581055 136.1282959 C256.94470749 136.90328934 256.93360443 137.67828278 256.92216492 138.47676086 C256.40898915 141.09095061 255.59452218 141.86003903 253.5234375 143.50793457 C251.46151829 143.88398206 251.46151829 143.88398206 249.03968811 143.88545799 C248.11594863 143.89328123 247.19220915 143.90110448 246.24047756 143.90916479 C244.71583936 143.89912654 244.71583936 143.89912654 243.16040039 143.8888855 C242.08189599 143.89356547 241.00339159 143.89824544 239.89220524 143.90306723 C236.26004484 143.9150815 232.62825728 143.90553472 228.99609375 143.89611816 C226.3995644 143.900181 223.80303678 143.90552125 221.20651245 143.91204834 C214.87518548 143.92540704 208.54396504 143.92249847 202.21263385 143.91381042 C197.06827083 143.90704266 191.92393772 143.90611321 186.77957153 143.90938187 C186.0481488 143.90984157 185.31672608 143.91030126 184.56313902 143.91077489 C183.07739281 143.91173404 181.5916466 143.91270668 180.10590041 143.91369267 C166.16523702 143.92225282 152.22463275 143.91240265 138.28397906 143.89629157 C126.31526632 143.88288781 114.34664085 143.88521573 102.37792969 143.89904785 C88.48806921 143.91509265 74.59826059 143.92142879 60.70839214 143.91221106 C59.22802926 143.91125539 57.74766637 143.91031227 56.26730347 143.90938187 C55.17467645 143.90868763 55.17467645 143.90868763 54.05997616 143.90797936 C48.92018998 143.90538616 43.78043662 143.90976755 38.64065552 143.91682053 C31.72632937 143.92609978 24.81217127 143.91951882 17.89786148 143.90213776 C15.35450643 143.89815813 12.81113755 143.899332 10.26778793 143.90592575 C6.80715976 143.91407295 3.3470682 143.90390211 -0.11352539 143.8888855 C-1.12995086 143.89557766 -2.14637632 143.90226983 -3.19360256 143.90916479 C-4.57921178 143.89742992 -4.57921178 143.89742992 -5.99281311 143.88545799 C-6.79201707 143.88497094 -7.59122103 143.88448388 -8.41464329 143.88398206 C-10.99793114 143.41284871 -11.88469496 142.55851244 -13.4765625 140.50793457 C-13.87528992 138.47676086 -13.87528992 138.47676086 -13.90893555 136.1282959 C-13.93884583 134.78885925 -13.93884583 134.78885925 -13.96936035 133.42236328 C-13.97560425 132.48767212 -13.98184814 131.55298096 -13.98828125 130.58996582 C-14.00491821 129.72802612 -14.02155518 128.86608643 -14.03869629 127.97802734 C-14.09651834 124.75907782 -14.12875366 121.53970976 -14.1640625 118.32043457 C-14.2671875 111.12230957 -14.3703125 103.92418457 -14.4765625 96.50793457 C-40.8765625 96.50793457 -67.2765625 96.50793457 -94.4765625 96.50793457 Z M-94.4765625 176.50793457 C-94.4765625 202.90793457 -94.4765625 229.30793457 -94.4765625 256.50793457 C-62.7965625 256.50793457 -31.1165625 256.50793457 1.5234375 256.50793457 C1.5234375 230.10793457 1.5234375 203.70793457 1.5234375 176.50793457 C-30.1565625 176.50793457 -61.8365625 176.50793457 -94.4765625 176.50793457 Z M17.5234375 176.50793457 C17.5234375 202.90793457 17.5234375 229.30793457 17.5234375 256.50793457 C49.2034375 256.50793457 80.8834375 256.50793457 113.5234375 256.50793457 C113.5234375 230.10793457 113.5234375 203.70793457 113.5234375 176.50793457 C81.8434375 176.50793457 50.1634375 176.50793457 17.5234375 176.50793457 Z M129.5234375 176.50793457 C129.5234375 202.90793457 129.5234375 229.30793457 129.5234375 256.50793457 C161.2034375 256.50793457 192.8834375 256.50793457 225.5234375 256.50793457 C225.5234375 230.10793457 225.5234375 203.70793457 225.5234375 176.50793457 C193.8434375 176.50793457 162.1634375 176.50793457 129.5234375 176.50793457 Z M241.5234375 176.50793457 C241.5234375 202.90793457 241.5234375 229.30793457 241.5234375 256.50793457 C273.2034375 256.50793457 304.8834375 256.50793457 337.5234375 256.50793457 C337.5234375 230.10793457 337.5234375 203.70793457 337.5234375 176.50793457 C305.8434375 176.50793457 274.1634375 176.50793457 241.5234375 176.50793457 Z M-94.4765625 272.50793457 C-94.4765625 320.02793457 -94.4765625 367.54793457 -94.4765625 416.50793457 C-78.6365625 416.50793457 -62.7965625 416.50793457 -46.4765625 416.50793457 C-46.1465625 410.23793457 -45.8165625 403.96793457 -45.4765625 397.50793457 C-41.28734886 381.37170426 -33.61113397 369.50434817 -19.4765625 360.50793457 C-5.30333274 352.96534447 11.24443839 350.47106833 26.91455078 354.94519043 C36.18773785 358.06426478 43.98667538 363.24486555 50.5234375 370.50793457 C50.99136719 370.97199707 51.45929688 371.43605957 51.94140625 371.91418457 C63.65044912 384.19513442 64.67029516 400.29823014 65.5234375 416.50793457 C102.4834375 416.50793457 139.4434375 416.50793457 177.5234375 416.50793457 C177.8534375 410.23793457 178.1834375 403.96793457 178.5234375 397.50793457 C182.71265114 381.37170426 190.38886603 369.50434817 204.5234375 360.50793457 C218.69666726 352.96534447 235.24443839 350.47106833 250.91455078 354.94519043 C260.18773785 358.06426478 267.98667538 363.24486555 274.5234375 370.50793457 C274.99136719 370.97199707 275.45929688 371.43605957 275.94140625 371.91418457 C287.65044912 384.19513442 288.67029516 400.29823014 289.5234375 416.50793457 C305.3634375 416.50793457 321.2034375 416.50793457 337.5234375 416.50793457 C337.5234375 368.98793457 337.5234375 321.46793457 337.5234375 272.50793457 C194.9634375 272.50793457 52.4034375 272.50793457 -94.4765625 272.50793457 Z M-22.2890625 384.75793457 C-35.43678985 402.6644681 -30.4765625 428.48347871 -30.4765625 448.50793457 C-4.0765625 448.50793457 22.3234375 448.50793457 49.5234375 448.50793457 C52.06954915 410.97097579 52.06954915 410.97097579 36.765625 379.55090332 C27.59659341 371.19654178 17.72167828 368.88399091 5.53515625 369.19934082 C-6.0697523 369.85818251 -14.96644952 376.06719008 -22.2890625 384.75793457 Z M201.7109375 384.75793457 C188.56321015 402.6644681 193.5234375 428.48347871 193.5234375 448.50793457 C219.9234375 448.50793457 246.3234375 448.50793457 273.5234375 448.50793457 C276.06954915 410.97097579 276.06954915 410.97097579 260.765625 379.55090332 C251.59659341 371.19654178 241.72167828 368.88399091 229.53515625 369.19934082 C217.9302477 369.85818251 209.03355048 376.06719008 201.7109375 384.75793457 Z M-94.4765625 432.50793457 C-94.4765625 437.78793457 -94.4765625 443.06793457 -94.4765625 448.50793457 C-78.6365625 448.50793457 -62.7965625 448.50793457 -46.4765625 448.50793457 C-46.4765625 443.22793457 -46.4765625 437.94793457 -46.4765625 432.50793457 C-62.3165625 432.50793457 -78.1565625 432.50793457 -94.4765625 432.50793457 Z M65.5234375 432.50793457 C65.5234375 437.78793457 65.5234375 443.06793457 65.5234375 448.50793457 C102.4834375 448.50793457 139.4434375 448.50793457 177.5234375 448.50793457 C177.5234375 443.22793457 177.5234375 437.94793457 177.5234375 432.50793457 C140.5634375 432.50793457 103.6034375 432.50793457 65.5234375 432.50793457 Z M289.5234375 432.50793457 C289.5234375 437.78793457 289.5234375 443.06793457 289.5234375 448.50793457 C305.3634375 448.50793457 321.2034375 448.50793457 337.5234375 448.50793457 C337.5234375 443.22793457 337.5234375 437.94793457 337.5234375 432.50793457 C321.6834375 432.50793457 305.8434375 432.50793457 289.5234375 432.50793457 Z M-110.4765625 464.50793457 C-110.4765625 469.78793457 -110.4765625 475.06793457 -110.4765625 480.50793457 C42.6434375 480.50793457 195.7634375 480.50793457 353.5234375 480.50793457 C353.5234375 475.22793457 353.5234375 469.94793457 353.5234375 464.50793457 C200.4034375 464.50793457 47.2834375 464.50793457 -110.4765625 464.50793457 Z " fill="#FFFFFF" transform="translate(134.4765625,7.4920654296875)"/>
<path d="M0 0 C1.00853027 -0.00700928 2.01706055 -0.01401855 3.05615234 -0.02124023 C6.39188114 -0.03885406 9.72676248 -0.02718497 13.0625 -0.01367188 C15.37890791 -0.0163658 17.69531472 -0.02024739 20.01171875 -0.02526855 C24.86729698 -0.03116822 29.72258096 -0.02258526 34.578125 -0.00390625 C40.80614646 0.01888316 47.03347845 0.00576265 53.26147461 -0.01819611 C58.04497485 -0.0326412 62.82831127 -0.02805393 67.61181641 -0.01768494 C69.90836671 -0.0150141 72.20493183 -0.01829988 74.50146484 -0.02760315 C77.7097114 -0.03774714 80.91683706 -0.02229671 84.125 0 C85.55271729 -0.01214539 85.55271729 -0.01214539 87.00927734 -0.02453613 C93.39320111 0.05777639 93.39320111 0.05777639 96.65124512 2.29602051 C98.14995737 4.65525105 98.56733057 5.81756917 98.58007812 8.58007812 C98.59268677 9.36769531 98.60529541 10.1553125 98.61828613 10.96679688 C98.61018921 11.80855469 98.60209229 12.6503125 98.59375 13.51757812 C98.59949036 14.82662109 98.59949036 14.82662109 98.60534668 16.16210938 C98.6080649 18.00456905 98.60070994 19.84706737 98.58398438 21.68945312 C98.56257248 24.50803746 98.58378801 27.32407297 98.609375 30.14257812 C98.60673171 31.93425041 98.60160669 33.72592111 98.59375 35.51757812 C98.60184692 36.35933594 98.60994385 37.20109375 98.61828613 38.06835938 C98.60567749 38.85597656 98.59306885 39.64359375 98.58007812 40.45507812 C98.57689575 41.14472656 98.57371338 41.834375 98.57043457 42.54492188 C97.76530425 45.67179186 96.73943632 46.67854925 94.0625 48.51757812 C90.75288099 49.11569435 87.48056152 49.06370153 84.125 49.03515625 C83.11646973 49.04216553 82.10793945 49.0491748 81.06884766 49.05639648 C77.73311886 49.07401031 74.39823752 49.06234122 71.0625 49.04882812 C68.74609209 49.05152205 66.42968528 49.05540364 64.11328125 49.0604248 C59.25770302 49.06632447 54.40241904 49.05774151 49.546875 49.0390625 C43.31885354 49.01627309 37.09152155 49.0293936 30.86352539 49.05335236 C26.08002515 49.06779745 21.29668873 49.06321018 16.51318359 49.05284119 C14.21663329 49.05017035 11.92006817 49.05345613 9.62353516 49.0627594 C6.4152886 49.07290339 3.20816294 49.05745296 0 49.03515625 C-0.95181152 49.04325317 -1.90362305 49.0513501 -2.88427734 49.05969238 C-9.26820111 48.97737986 -9.26820111 48.97737986 -12.52624512 46.73913574 C-14.02495737 44.3799052 -14.44233057 43.21758708 -14.45507812 40.45507812 C-14.46768677 39.66746094 -14.48029541 38.87984375 -14.49328613 38.06835938 C-14.48518921 37.22660156 -14.47709229 36.38484375 -14.46875 35.51757812 C-14.4725769 34.64488281 -14.47640381 33.7721875 -14.48034668 32.87304688 C-14.4830649 31.0305872 -14.47570994 29.18808888 -14.45898438 27.34570312 C-14.43757248 24.52711879 -14.45878801 21.71108328 -14.484375 18.89257812 C-14.48173171 17.10090584 -14.47660669 15.30923514 -14.46875 13.51757812 C-14.47684692 12.67582031 -14.48494385 11.8340625 -14.49328613 10.96679688 C-14.48067749 10.17917969 -14.46806885 9.3915625 -14.45507812 8.58007812 C-14.45189575 7.89042969 -14.44871338 7.20078125 -14.44543457 6.49023438 C-12.56450178 -0.81471008 -6.18642004 -0.05262699 0 0 Z M2.0625 16.51757812 C2.0625 21.79757812 2.0625 27.07757813 2.0625 32.51757812 C28.4625 32.51757812 54.8625 32.51757812 82.0625 32.51757812 C82.0625 27.23757813 82.0625 21.95757812 82.0625 16.51757812 C55.6625 16.51757812 29.2625 16.51757812 2.0625 16.51757812 Z " fill="#FFFFFF" transform="translate(325.9375,295.482421875)"/>
<path d="M0 0 C1.00853027 -0.00700928 2.01706055 -0.01401855 3.05615234 -0.02124023 C6.39188114 -0.03885406 9.72676248 -0.02718497 13.0625 -0.01367188 C15.37890791 -0.0163658 17.69531472 -0.02024739 20.01171875 -0.02526855 C24.86729698 -0.03116822 29.72258096 -0.02258526 34.578125 -0.00390625 C40.80614646 0.01888316 47.03347845 0.00576265 53.26147461 -0.01819611 C58.04497485 -0.0326412 62.82831127 -0.02805393 67.61181641 -0.01768494 C69.90836671 -0.0150141 72.20493183 -0.01829988 74.50146484 -0.02760315 C77.7097114 -0.03774714 80.91683706 -0.02229671 84.125 0 C85.55271729 -0.01214539 85.55271729 -0.01214539 87.00927734 -0.02453613 C93.39320111 0.05777639 93.39320111 0.05777639 96.65124512 2.29602051 C98.14995737 4.65525105 98.56733057 5.81756917 98.58007812 8.58007812 C98.59268677 9.36769531 98.60529541 10.1553125 98.61828613 10.96679688 C98.61018921 11.80855469 98.60209229 12.6503125 98.59375 13.51757812 C98.59949036 14.82662109 98.59949036 14.82662109 98.60534668 16.16210938 C98.6080649 18.00456905 98.60070994 19.84706737 98.58398438 21.68945312 C98.56257248 24.50803746 98.58378801 27.32407297 98.609375 30.14257812 C98.60673171 31.93425041 98.60160669 33.72592111 98.59375 35.51757812 C98.60184692 36.35933594 98.60994385 37.20109375 98.61828613 38.06835938 C98.60567749 38.85597656 98.59306885 39.64359375 98.58007812 40.45507812 C98.57689575 41.14472656 98.57371338 41.834375 98.57043457 42.54492188 C97.76530425 45.67179186 96.73943632 46.67854925 94.0625 48.51757812 C90.75288099 49.11569435 87.48056152 49.06370153 84.125 49.03515625 C83.11646973 49.04216553 82.10793945 49.0491748 81.06884766 49.05639648 C77.73311886 49.07401031 74.39823752 49.06234122 71.0625 49.04882812 C68.74609209 49.05152205 66.42968528 49.05540364 64.11328125 49.0604248 C59.25770302 49.06632447 54.40241904 49.05774151 49.546875 49.0390625 C43.31885354 49.01627309 37.09152155 49.0293936 30.86352539 49.05335236 C26.08002515 49.06779745 21.29668873 49.06321018 16.51318359 49.05284119 C14.21663329 49.05017035 11.92006817 49.05345613 9.62353516 49.0627594 C6.4152886 49.07290339 3.20816294 49.05745296 0 49.03515625 C-0.95181152 49.04325317 -1.90362305 49.0513501 -2.88427734 49.05969238 C-9.26820111 48.97737986 -9.26820111 48.97737986 -12.52624512 46.73913574 C-14.02495737 44.3799052 -14.44233057 43.21758708 -14.45507812 40.45507812 C-14.46768677 39.66746094 -14.48029541 38.87984375 -14.49328613 38.06835938 C-14.48518921 37.22660156 -14.47709229 36.38484375 -14.46875 35.51757812 C-14.4725769 34.64488281 -14.47640381 33.7721875 -14.48034668 32.87304688 C-14.4830649 31.0305872 -14.47570994 29.18808888 -14.45898438 27.34570312 C-14.43757248 24.52711879 -14.45878801 21.71108328 -14.484375 18.89257812 C-14.48173171 17.10090584 -14.47660669 15.30923514 -14.46875 13.51757812 C-14.47684692 12.67582031 -14.48494385 11.8340625 -14.49328613 10.96679688 C-14.48067749 10.17917969 -14.46806885 9.3915625 -14.45507812 8.58007812 C-14.45189575 7.89042969 -14.44871338 7.20078125 -14.44543457 6.49023438 C-12.56450178 -0.81471008 -6.18642004 -0.05262699 0 0 Z M2.0625 16.51757812 C2.0625 21.79757812 2.0625 27.07757813 2.0625 32.51757812 C28.4625 32.51757812 54.8625 32.51757812 82.0625 32.51757812 C82.0625 27.23757813 82.0625 21.95757812 82.0625 16.51757812 C55.6625 16.51757812 29.2625 16.51757812 2.0625 16.51757812 Z " fill="#FFFFFF" transform="translate(101.9375,295.482421875)"/>
<path d="M0 0 C0.83476868 -0.01260864 1.66953735 -0.02521729 2.52960205 -0.03820801 C3.87184845 -0.02606262 3.87184845 -0.02606262 5.24121094 -0.01367188 C6.17100769 -0.01749878 7.10080444 -0.02132568 8.05877686 -0.02526855 C10.02568646 -0.02798864 11.99263219 -0.0206207 13.95947266 -0.00390625 C16.9513558 0.01740553 19.94081108 -0.00365423 22.93261719 -0.02929688 C24.84798703 -0.02665172 26.76335536 -0.02152288 28.67871094 -0.01367188 C30.00881195 -0.02581726 30.00881195 -0.02581726 31.36578369 -0.03820801 C38.37217157 0.0660443 43.6588429 1.8301709 48.96777344 6.48242188 C49.50660156 7.13339844 50.04542969 7.784375 50.60058594 8.45507812 C51.43203125 9.42767578 51.43203125 9.42767578 52.28027344 10.41992188 C56.73245353 16.88159947 56.48120166 23.92707474 55.72558594 31.51757812 C54.75683594 34.03320312 54.75683594 34.03320312 53.60058594 36.08007812 C51.35755318 39.28565572 51.35755318 39.28565572 52.35058594 42.20507812 C52.80433594 42.96820313 53.25808594 43.73132813 53.72558594 44.51757812 C56.85918796 51.06127646 56.87154831 58.97724621 55.10839844 65.96289062 C52.4753527 71.90471951 47.40298773 76.57228587 41.70410156 79.58691406 C37.45325378 80.91512978 33.40154932 80.84258775 28.97167969 80.85351562 C27.56487694 80.86350082 27.56487694 80.86350082 26.12965393 80.87368774 C24.15196692 80.88379011 22.17424599 80.88850551 20.1965332 80.88818359 C17.16984282 80.89256834 14.14459779 80.92894495 11.11816406 80.96679688 C9.19434092 80.9726632 7.27051086 80.97663382 5.34667969 80.97851562 C4.44243759 80.99288666 3.5381955 81.00725769 2.60655212 81.02206421 C1.76210037 81.01591095 0.91764862 81.00975769 0.04760742 81.00341797 C-1.06228294 81.00769302 -1.06228294 81.00769302 -2.19459534 81.01205444 C-5.28130798 80.27818938 -6.41026621 79.06393995 -8.27441406 76.51757812 C-8.78234863 73.33007812 -8.78234863 73.33007812 -8.79199219 69.51757812 C-8.79900146 68.82116211 -8.80601074 68.12474609 -8.81323242 67.40722656 C-8.83080602 65.11026881 -8.81919326 62.81454792 -8.80566406 60.51757812 C-8.80835919 58.91861739 -8.81224179 57.31965825 -8.81726074 55.72070312 C-8.82315488 52.37158587 -8.81459599 49.02289569 -8.79589844 45.67382812 C-8.77310841 41.38279222 -8.78623202 37.09275701 -8.81018829 32.80175781 C-8.82464886 29.50057446 -8.82003921 26.19962802 -8.80967712 22.8984375 C-8.80701053 21.31640504 -8.81027728 19.73435101 -8.81959534 18.15234375 C-8.82976585 15.9401765 -8.81425596 13.72962513 -8.79199219 11.51757812 C-8.78880981 10.25945313 -8.78562744 9.00132813 -8.78234863 7.70507812 C-8.27441406 4.51757812 -8.27441406 4.51757812 -6.50921631 2.11242676 C-4.05791936 0.36307842 -2.96834749 0.01292471 0 0 Z M7.72558594 16.51757812 C7.72558594 21.79757813 7.72558594 27.07757813 7.72558594 32.51757812 C11.60100871 32.59869162 15.47472476 32.65813863 19.35058594 32.70507812 C20.445 32.73021484 21.53941406 32.75535156 22.66699219 32.78125 C30.62582351 32.88706382 30.62582351 32.88706382 37.72558594 29.51757812 C39.14600414 26.67674171 39.04010866 24.66280535 38.72558594 21.51757812 C36.49352163 18.66977194 35.17565595 17.66760146 31.72558594 16.51757812 C29.87948061 16.43518644 28.0305343 16.41014454 26.18261719 16.41992188 C24.57290039 16.42475586 24.57290039 16.42475586 22.93066406 16.4296875 C21.81111328 16.43806641 20.6915625 16.44644531 19.53808594 16.45507812 C17.84135742 16.4618457 17.84135742 16.4618457 16.11035156 16.46875 C13.31540718 16.48054301 10.52048994 16.49847855 7.72558594 16.51757812 Z M7.72558594 48.51757812 C7.72558594 53.79757813 7.72558594 59.07757813 7.72558594 64.51757812 C11.60100871 64.59869162 15.47472476 64.65813863 19.35058594 64.70507812 C20.445 64.73021484 21.53941406 64.75535156 22.66699219 64.78125 C30.62582351 64.88706382 30.62582351 64.88706382 37.72558594 61.51757812 C39.14600414 58.67674171 39.04010866 56.66280535 38.72558594 53.51757812 C36.49352163 50.66977194 35.17565595 49.66760146 31.72558594 48.51757812 C29.87948061 48.43518644 28.0305343 48.41014454 26.18261719 48.41992188 C24.57290039 48.42475586 24.57290039 48.42475586 22.93066406 48.4296875 C21.81111328 48.43806641 20.6915625 48.44644531 19.53808594 48.45507812 C17.84135742 48.4618457 17.84135742 48.4618457 16.11035156 48.46875 C13.31540718 48.48054301 10.52048994 48.49847855 7.72558594 48.51757812 Z " fill="#FFFFFF" transform="translate(304.2744140625,39.482421875)"/>
<path d="M0 0 C8.44593126 5.03627753 13.34587038 11.84899326 16.109375 21.2578125 C16.34988403 24.10531616 16.34988403 24.10531616 16.33642578 27.07958984 C16.33627472 28.20029877 16.33612366 29.32100769 16.33596802 30.47567749 C16.32564545 31.66964142 16.31532288 32.86360535 16.3046875 34.09375 C16.3018576 35.32823883 16.29902771 36.56272766 16.29611206 37.83462524 C16.28494022 41.76745399 16.25984064 45.70005287 16.234375 49.6328125 C16.22321325 52.30338209 16.21521619 54.97394951 16.20703125 57.64453125 C16.18501062 64.18237989 16.15050092 70.72005725 16.109375 77.2578125 C10.829375 77.2578125 5.549375 77.2578125 0.109375 77.2578125 C0.109375 71.9778125 0.109375 66.6978125 0.109375 61.2578125 C-10.450625 61.2578125 -21.010625 61.2578125 -31.890625 61.2578125 C-31.890625 66.5378125 -31.890625 71.8178125 -31.890625 77.2578125 C-37.170625 77.2578125 -42.450625 77.2578125 -47.890625 77.2578125 C-47.9899071 69.46569484 -48.06229061 61.67394991 -48.11035156 53.88134766 C-48.1303988 51.2334959 -48.15764384 48.58568804 -48.19238281 45.93798828 C-48.24120244 42.12000662 -48.26366381 38.30261314 -48.28125 34.484375 C-48.30189514 33.31105621 -48.32254028 32.13773743 -48.34381104 30.92886353 C-48.34642934 21.21904963 -46.35570332 13.02913373 -39.59375 5.7890625 C-28.99673947 -3.73852495 -12.95346121 -6.21592266 0 0 Z M-26.890625 18.2578125 C-33.64463847 26.83723502 -31.890625 33.78364741 -31.890625 45.2578125 C-21.330625 45.2578125 -10.770625 45.2578125 0.109375 45.2578125 C1.12704638 31.11928668 1.12704638 31.11928668 -4.35546875 18.64453125 C-9.06650426 14.55549065 -12.30265834 13.90202475 -18.3515625 13.98046875 C-22.11522902 14.39157694 -24.10852687 15.7406761 -26.890625 18.2578125 Z " fill="#FFFFFF" transform="translate(263.890625,42.7421875)"/>
<path d="M0 0 C5.28 0 10.56 0 16 0 C16 21.12 16 42.24 16 64 C26.56 64 37.12 64 48 64 C48 69.28 48 74.56 48 80 C41.80701358 80.09888089 35.61448668 80.17147486 29.42089844 80.21972656 C27.31404618 80.23984126 25.20724975 80.26713667 23.10058594 80.30175781 C20.07212553 80.35028168 17.04440322 80.37297016 14.015625 80.390625 C12.60292328 80.42159271 12.60292328 80.42159271 11.16168213 80.45318604 C10.28107117 80.45348816 9.40046021 80.45379028 8.49316406 80.45410156 C7.72039124 80.46298401 6.94761841 80.47186646 6.15142822 80.48101807 C2.98714522 79.77354511 1.88279232 78.62454621 0 76 C-0.37454981 73.37881671 -0.50811196 71.18430138 -0.45410156 68.56933594 C-0.45468567 67.82748047 -0.45526978 67.085625 -0.45587158 66.32128906 C-0.45309025 63.87517098 -0.42199786 61.43027953 -0.390625 58.984375 C-0.38316274 57.28615993 -0.37746973 55.58793624 -0.37347412 53.88970947 C-0.35821651 49.4244399 -0.31893389 44.95969247 -0.2746582 40.49462891 C-0.23370807 35.93659529 -0.21546367 31.37847713 -0.1953125 26.8203125 C-0.15243936 17.87994226 -0.08208875 8.94009628 0 0 Z " fill="#FFFFFF" transform="translate(152,40)"/>
</svg>
