<?xml version="1.0" encoding="UTF-8"?>
<svg version="1.1" xmlns="http://www.w3.org/2000/svg" width="512" height="512">
<path d="M0 0 C0.64555364 -0.00611336 1.29110729 -0.01222672 1.95622316 -0.01852533 C4.12254833 -0.03414411 6.2877569 -0.02125295 8.45408726 -0.00850582 C10.02155717 -0.01383023 11.58902198 -0.02089532 13.15647703 -0.02955288 C17.46630402 -0.04822127 21.77578837 -0.04186088 26.08562982 -0.03139985 C30.73262923 -0.0244197 35.3795574 -0.04039676 40.02653599 -0.05339718 C49.13124353 -0.0750624 58.23582621 -0.07490381 67.34055107 -0.06677163 C74.73932553 -0.06047697 82.13806351 -0.06160376 89.53683758 -0.06804371 C90.58906506 -0.06894536 91.64129255 -0.06984702 92.72540571 -0.070776 C94.86286366 -0.07262716 97.00032161 -0.07448972 99.13777954 -0.07636356 C119.1913591 -0.09295086 139.24486834 -0.08421495 159.29844368 -0.06737798 C177.65260262 -0.05268063 196.00659786 -0.06730829 214.36073571 -0.09614814 C233.19824758 -0.12552751 252.03568386 -0.13651865 270.87321764 -0.12696594 C273.00320723 -0.12594337 275.13319684 -0.12494876 277.26318645 -0.12398243 C278.31122915 -0.12350604 279.35927184 -0.12302965 280.43907339 -0.12253882 C287.82971641 -0.12037274 295.22028801 -0.13018911 302.61091518 -0.14475346 C311.61668189 -0.16225277 320.62223987 -0.162194 329.62799828 -0.1394018 C334.22423401 -0.12823767 338.82010166 -0.12514606 343.41632175 -0.14370251 C347.62269258 -0.16046668 351.82837314 -0.15421194 356.03469891 -0.12948572 C357.55752329 -0.12458858 359.08040292 -0.12815578 360.60318124 -0.14097316 C373.41016648 -0.24100377 373.41016648 -0.24100377 377.30984592 2.92152405 C381.00112398 7.34446097 381.00112398 7.34446097 382.34997654 9.43047428 C382.83755436 10.17374973 383.32513218 10.91702518 383.82748508 11.68282413 C384.33885014 12.48303989 384.85021519 13.28325565 385.37707615 14.10772038 C386.2127663 15.388409 386.2127663 15.388409 387.06533909 16.69497013 C388.2677761 18.5395272 389.46598199 20.38684803 390.66037083 22.23662663 C393.85568976 27.18510586 397.08102949 32.11397672 400.3028574 37.04522038 C400.96768635 38.06456669 401.6325153 39.083913 402.31749058 40.1341486 C410.26302084 52.29612313 418.4146701 64.31848621 426.57632542 76.33605289 C427.79927482 78.13691627 429.02137958 79.93835361 430.24252415 81.74044132 C431.34597488 83.36870519 432.4514927 84.99557093 433.55947971 86.62075138 C434.0473798 87.34090427 434.53527988 88.06105717 435.03796482 88.80303288 C435.46123554 89.4253278 435.88450626 90.04762272 436.32060337 90.68877506 C439.36617442 95.51725685 439.78704297 99.37162591 439.8028574 105.04131413 C439.8095142 105.87521168 439.816171 106.70910923 439.82302952 107.56827641 C439.83314629 109.33425034 439.83784684 111.10026242 439.83752537 112.8662653 C439.84186566 115.53530611 439.87810194 118.20264748 439.91613865 120.87139225 C440.01561088 135.78017564 437.17481082 146.78407078 427.0919199 158.19365788 C418.47887648 165.78133899 410.97618289 169.86197745 399.4669199 171.50615788 C399.4669199 211.10615788 399.4669199 250.70615788 399.4669199 291.50615788 C404.0869199 291.50615788 408.7069199 291.50615788 413.4669199 291.50615788 C418.4669199 295.50615788 418.4669199 295.50615788 419.4669199 297.50615788 C419.56100738 299.53335307 419.58882432 301.56372568 419.58717442 303.59310246 C419.58923641 305.54089603 419.58923641 305.54089603 419.59134007 307.52803898 C419.58780067 308.97533535 419.58416586 310.42263149 419.58044529 311.86992741 C419.58016335 313.38744448 419.58032129 314.90496168 419.58088779 316.42247868 C419.5811755 320.55033965 419.57528316 324.67817174 419.56831384 328.80602598 C419.56207577 333.11686559 419.56147614 337.42770581 419.56028843 341.73854923 C419.55717645 349.90541109 419.54896486 358.07225962 419.53893894 366.2391156 C419.52777366 375.53523479 419.5222663 384.83135461 419.5172435 394.12747884 C419.50678214 413.25371275 419.48918527 432.37993424 419.4669199 451.50615788 C420.29111423 451.49093082 421.11530857 451.47570377 421.96447849 451.4600153 C423.04551853 451.44817204 424.12655857 451.43632877 425.2403574 451.42412663 C426.31205173 451.40889957 427.38374607 451.39367252 428.48791599 451.37798405 C432.14986933 451.53554228 434.48193766 452.38524944 437.4669199 454.50615788 C439.61398984 457.72676279 439.72767173 458.63994708 439.77331638 462.35723209 C439.78930378 463.34190464 439.80529118 464.32657719 439.82176304 465.34108829 C439.82712574 466.40360813 439.83248844 467.46612797 439.83801365 468.56084538 C439.84704212 469.65454441 439.85607059 470.74824345 439.86537266 471.87508488 C439.87988787 474.19006959 439.88876504 476.50509544 439.89245701 478.82012272 C439.90435118 482.3607029 439.9535252 485.89953951 440.00402927 489.43975163 C440.01349354 491.68844103 440.02072856 493.93714115 440.02551365 496.18584538 C440.04504597 497.24431675 440.06457829 498.30278812 440.08470249 499.39333439 C440.07862476 500.38431126 440.07254704 501.37528812 440.06628513 502.39629459 C440.07135578 503.26438755 440.07642643 504.13248051 440.08165073 505.02687931 C439.1605206 508.74190068 437.44019048 510.13445711 434.4669199 512.50615788 C431.46175337 512.99740392 429.02635145 513.17977941 426.02572727 513.13536358 C425.17389244 513.14263078 424.32205761 513.14989799 423.44440961 513.15738541 C420.57630539 513.17570269 417.70952715 513.15824889 414.84143162 513.14107609 C412.77002304 513.14683461 410.69861957 513.15477391 408.62722683 513.16471231 C402.92444832 513.18564567 397.22208648 513.17524084 391.51930618 513.15978122 C385.3733359 513.14849821 379.22743877 513.16591525 373.08148289 513.17968082 C361.73391758 513.2006624 350.38652271 513.19879745 339.03896159 513.18512348 C328.55657972 513.17255383 318.07424672 513.16925839 307.59185886 513.1752367 C306.54954372 513.17580959 306.54954372 513.17580959 305.48617171 513.17639405 C302.66555691 513.1779507 299.84494213 513.1795427 297.02432739 513.18119287 C270.55589768 513.19649354 244.08755291 513.18261161 217.6191363 513.15570839 C194.09504471 513.1319797 170.57108844 513.13410281 147.04699802 513.15801334 C120.62749562 513.18477698 94.20806827 513.1954085 67.78855419 513.17995203 C64.97302979 513.1783484 62.15750537 513.1767842 59.34198093 513.1752367 C58.30207305 513.17464362 58.30207305 513.17464362 57.24115692 513.17403856 C46.76444976 513.16834725 36.2877968 513.1750099 25.81109715 513.18763447 C13.90055127 513.20191514 1.99016526 513.1979077 -9.92037439 513.17123075 C-16.00097097 513.15806185 -22.08129244 513.15299267 -28.16188717 513.16947651 C-33.72328019 513.18432518 -39.2841419 513.17627171 -44.8454864 513.14958875 C-46.86223089 513.14398219 -48.87901985 513.14689254 -50.89573598 513.15896769 C-53.62843287 513.17408048 -56.35928824 513.15867603 -59.09188747 513.13536358 C-59.88270458 513.14706941 -60.67352169 513.15877524 -61.48830295 513.17083579 C-65.52079288 513.10164465 -67.3282285 512.66968935 -70.52097225 510.12094629 C-72.74041753 507.2367173 -73.16352229 506.01033104 -73.18005276 502.42803288 C-73.20369396 500.95125065 -73.20369396 500.95125065 -73.22781277 499.44463444 C-73.21769161 498.39243717 -73.20757046 497.34023991 -73.1971426 496.25615788 C-73.20192623 495.16528873 -73.20670986 494.07441959 -73.21163845 492.95049381 C-73.21503623 490.64741922 -73.20584253 488.34429632 -73.18493557 486.04131413 C-73.1581707 482.5180837 -73.18469012 478.99803932 -73.21667385 475.47490788 C-73.21336973 473.23531752 -73.20696347 470.99572914 -73.1971426 468.75615788 C-73.20726376 467.70396061 -73.21738491 466.65176334 -73.22781277 465.56768131 C-73.11110461 458.27733681 -73.11110461 458.27733681 -70.17907619 454.36553288 C-66.12360657 451.51570295 -63.18673128 451.39160249 -58.3455801 451.44365788 C-57.25890041 451.45268131 -56.17222073 451.46170475 -55.05261135 451.47100163 C-54.22116604 451.48260319 -53.38972073 451.49420475 -52.5330801 451.50615788 C-52.53676727 450.71709207 -52.54045444 449.92802626 -52.54425335 449.11504936 C-52.63257322 429.91937226 -52.69877453 410.72373569 -52.74032879 391.52789879 C-52.76095803 382.24494285 -52.78908551 372.96212249 -52.83483791 363.67925358 C-52.87469464 355.58872662 -52.90051029 347.49829785 -52.90943408 339.40767545 C-52.91465082 335.12332008 -52.92691942 330.83924564 -52.95600033 326.55498028 C-52.98315114 322.52238841 -52.99152586 318.49019317 -52.98551083 314.45751858 C-52.98661122 312.97765669 -52.99456741 311.49778154 -53.009902 310.0179987 C-53.02982047 307.99671879 -53.02263057 305.97522604 -53.01409817 303.953866 C-53.01778534 302.82282601 -53.02147251 301.69178602 -53.02527142 300.52647209 C-52.42243843 296.82720924 -51.11704653 295.1697818 -48.5330801 292.50615788 C-43.75349388 290.11636476 -37.87681995 291.50615788 -32.5330801 291.50615788 C-32.5330801 251.90615788 -32.5330801 212.30615788 -32.5330801 171.50615788 C-35.8330801 170.84615788 -39.1330801 170.18615788 -42.5330801 169.50615788 C-55.63094053 164.36056985 -64.04989942 156.49368502 -69.9080801 143.63115788 C-73.22438787 135.81620652 -73.00467776 127.78052944 -73.15783596 119.42070866 C-73.19917341 117.66523435 -73.26022183 115.91009686 -73.34240627 114.15606022 C-73.94303548 101.09082701 -71.91730171 93.08472027 -64.08767605 82.61901188 C-61.84517418 79.57122377 -59.7767568 76.41531299 -57.68766689 73.26123905 C-54.75375576 68.84057299 -51.76316603 64.45826642 -48.7830801 60.06865788 C-46.21374985 56.278088 -43.64630769 52.48624429 -41.0799551 48.69365788 C-40.44259426 47.75208332 -39.80523342 46.81050877 -39.14855862 45.84040165 C-35.03483563 39.75416163 -30.96301659 33.6419985 -26.9237051 27.50615788 C-26.41631802 26.73714649 -25.90893093 25.96813511 -25.38616848 25.17582035 C-23.02237213 21.59284312 -20.66611672 18.00535751 -18.32311916 14.40874577 C-17.48723869 13.14018307 -16.65099775 11.87185779 -15.8143301 10.60381413 C-15.10341213 9.51592594 -14.39249416 8.42803776 -13.66003323 7.30718327 C-9.64732806 2.02277483 -6.69596809 0.00694234 0 0 Z M-22.38122463 58.05889225 C-26.20135256 64.73848097 -30.42767107 71.11272207 -34.73626614 77.48326969 C-36.46313793 80.0485413 -38.15108199 82.63838054 -39.83386135 85.23272038 C-40.36149075 86.04305729 -40.88912014 86.8533942 -41.4327383 87.68828678 C-42.6193835 89.2945813 -42.6193835 89.2945813 -42.5330801 90.50615788 C-28.0130801 90.50615788 -13.4930801 90.50615788 1.4669199 90.50615788 C10.64989623 71.58366119 19.66621422 52.60900196 28.4669199 33.50615788 C29.59154786 31.06848602 30.71675271 28.63108094 31.8419199 26.19365788 C32.59602146 24.55977116 32.59602146 24.55977116 33.3653574 22.89287663 C33.72887302 22.10525944 34.09238865 21.31764225 34.4669199 20.50615788 C2.19981927 11.27613574 -7.83299225 32.53195079 -22.38122463 58.05889225 Z M57.4669199 20.50615788 C44.53080282 46.91703096 44.53080282 46.91703096 31.9669199 73.50615788 C31.43429539 74.6543903 30.90167088 75.80262272 30.35290623 76.98565006 C28.28611488 81.46636914 26.30055645 85.9220665 24.4669199 90.50615788 C39.6469199 90.50615788 54.8269199 90.50615788 70.4669199 90.50615788 C73.84883967 78.87477814 73.84883967 78.87477814 77.22082615 67.24053288 C78.59389339 62.4948429 79.96811824 57.74950979 81.34924412 53.00615788 C82.46264718 49.182005 83.57084999 45.35638042 84.67546177 41.5296793 C85.09782608 40.06991035 85.5220621 38.61068161 85.94819736 37.15200901 C86.54468729 35.10902188 87.13449644 33.06421619 87.72277927 31.01885319 C88.22907871 29.27345249 88.22907871 29.27345249 88.74560642 27.49279118 C89.62342934 24.37020672 89.62342934 24.37020672 89.4669199 20.50615788 C78.9069199 20.50615788 68.3469199 20.50615788 57.4669199 20.50615788 Z M111.4669199 20.50615788 C108.08629456 32.34007584 108.08629456 32.34007584 104.71301365 44.17607975 C103.3391472 49.00282226 101.96441763 53.82930733 100.58459568 58.65435123 C99.47241248 62.54370282 98.3640618 66.43412763 97.25837803 70.32533169 C96.83552414 71.81089814 96.41128264 73.29607034 95.98564243 74.78084087 C95.39045454 76.85793599 94.80018239 78.93636868 94.21106052 81.01519108 C93.87352757 82.19877705 93.53599461 83.38236301 93.18823338 84.60181522 C92.34640267 87.49265381 92.34640267 87.49265381 92.4669199 90.50615788 C107.6469199 90.50615788 122.8269199 90.50615788 138.4669199 90.50615788 C139.79322425 87.85354918 139.85044271 85.53368736 140.13122654 82.57524967 C140.25127552 81.33023182 140.3713245 80.08521397 140.49501133 78.8024683 C140.62252054 77.43678547 140.74987158 76.07108786 140.87707615 74.70537663 C141.009886 73.30771081 141.1429822 71.91007217 141.27635288 70.51245975 C141.55535405 67.57968156 141.83161795 64.64666248 142.10583591 61.71343327 C142.45680359 57.96044326 142.81335282 54.2080104 143.1718235 50.45573044 C143.4473317 47.56737294 143.72043664 44.67879224 143.99276638 41.79013348 C144.12333637 40.40703808 144.25451149 39.02399968 144.38630962 37.64102077 C144.57055443 35.70265191 144.75135153 33.76395628 144.93200779 31.82524967 C145.08736752 30.17217052 145.08736752 30.17217052 145.24586582 28.48569584 C145.44273636 25.83212238 145.4669199 23.1670243 145.4669199 20.50615788 C134.2469199 20.50615788 123.0269199 20.50615788 111.4669199 20.50615788 Z M166.4669199 20.50615788 C163.77241842 43.81359565 161.60455004 67.13964908 159.4669199 90.50615788 C175.3069199 90.50615788 191.1469199 90.50615788 207.4669199 90.50615788 C206.42696198 79.27745201 206.42696198 79.27745201 205.38293552 68.04912663 C204.955977 63.46704837 204.52948672 58.88493002 204.10583591 54.30254459 C203.76410255 50.60653965 203.42022679 46.91073963 203.07488918 43.21506977 C202.94376455 41.80781048 202.81340108 40.40048004 202.68382549 38.99307728 C202.50166498 37.01596599 202.31650258 35.03913198 202.13122654 33.06231022 C202.0268578 31.93868076 201.92248905 30.81505131 201.81495762 29.65737247 C201.47647639 26.59268455 200.9738151 23.54752909 200.4669199 20.50615788 C189.2469199 20.50615788 178.0269199 20.50615788 166.4669199 20.50615788 Z M221.4669199 20.50615788 C222.56771126 35.73377171 223.83088715 50.93489382 225.25976658 66.13488102 C225.43975282 68.05138007 225.61837919 69.96800731 225.79565525 71.88475895 C226.04772239 74.6027284 226.30529209 77.32011854 226.56457615 80.03740788 C226.64057545 80.86338474 226.71657475 81.68936161 226.79487705 82.54036808 C227.12119806 86.65419464 227.12119806 86.65419464 228.4669199 90.50615788 C243.6469199 90.50615788 258.8269199 90.50615788 274.4669199 90.50615788 C272.79209939 82.09889006 272.79209939 82.09889006 270.67932224 73.86309147 C270.33912052 72.66260166 269.9989188 71.46211185 269.64840794 70.22524357 C269.28687626 68.96442966 268.92534458 67.70361576 268.5528574 66.40459538 C268.17423204 65.07376951 267.7959524 63.74284524 267.41800022 62.41182804 C266.43177689 58.94216422 265.44092441 55.47383973 264.4490366 52.00579166 C263.43391907 48.45333955 262.42323284 44.8996272 261.4122324 41.34600163 C259.43519763 34.39802081 257.45088974 27.45217648 255.4669199 20.50615788 C244.2469199 20.50615788 233.0269199 20.50615788 221.4669199 20.50615788 Z M277.4669199 20.50615788 C278.15907275 25.35122786 278.90140706 29.45678807 280.23278904 34.08403873 C280.59308704 35.34481739 280.95338505 36.60559605 281.32460117 37.90458012 C281.71699281 39.26008291 282.10948682 40.61555607 282.50207615 41.97100163 C282.90461647 43.37335631 283.30674531 44.77582917 283.70848179 46.17841434 C284.76145802 49.85053613 285.81997964 53.52103634 286.87970066 57.19121647 C288.15298353 61.60542324 289.41930538 66.02163137 290.68680668 70.43750095 C292.60820947 77.12859378 294.53838588 83.81709845 296.4669199 90.50615788 C311.6469199 90.50615788 326.8269199 90.50615788 342.4669199 90.50615788 C337.62486773 79.6115405 332.77723919 68.81972259 327.5372324 58.12551212 C325.80048861 54.58097498 324.07385585 51.03151163 322.34582615 47.48272038 C322.00947147 46.79264393 321.6731168 46.10256748 321.32656956 45.39157963 C317.30271419 37.12952324 313.37990379 28.82124864 309.4669199 20.50615788 C298.9069199 20.50615788 288.3469199 20.50615788 277.4669199 20.50615788 Z M332.4669199 20.50615788 C332.96578709 21.55287663 333.46465427 22.59959538 333.97863865 23.67803288 C338.6554252 33.51196066 343.26806858 43.3739286 347.8419199 53.25615788 C353.6142496 65.72343676 359.51399628 78.12407674 365.4669199 90.50615788 C379.9869199 90.50615788 394.5069199 90.50615788 409.4669199 90.50615788 C405.63082222 83.50372582 405.63082222 83.50372582 401.42761326 76.82280827 C400.61537548 75.61963711 400.61537548 75.61963711 399.78672886 74.39215946 C399.21584034 73.5545055 398.64495182 72.71685154 398.05676365 71.85381413 C397.44861317 70.95480885 396.84046268 70.05580357 396.2138834 69.1295557 C394.2808842 66.27354101 392.34285807 63.42098308 390.4044199 60.56865788 C388.49920511 57.75827799 386.59505526 54.94719963 384.69369602 52.13420963 C383.43842795 50.2845717 382.17584569 48.43987598 380.90591526 46.60027409 C377.8861007 42.20615351 375.02448463 37.81414757 372.42932224 33.15459538 C368.28193055 25.20199658 368.28193055 25.20199658 361.6070261 19.62203312 C356.77819515 18.36482225 352.11676477 18.83774332 347.2169199 19.38115788 C345.77862704 19.4716798 344.33977769 19.5537698 342.90051365 19.62725163 C339.41087288 19.8235266 335.94255972 20.13226135 332.4669199 20.50615788 Z M-52.5330801 111.50615788 C-53.16700316 129.15992909 -53.16700316 129.15992909 -44.7049551 143.35381413 C-38.53987815 149.08357076 -33.46325906 150.95812163 -25.0565176 150.75615788 C-18.5915828 150.11566898 -12.84601079 147.46480983 -8.5330801 142.50615788 C-1.4499657 131.80491206 -2.5330801 125.84558882 -2.5330801 111.50615788 C-19.0330801 111.50615788 -35.5330801 111.50615788 -52.5330801 111.50615788 Z M18.4669199 111.50615788 C17.40009675 129.56596596 17.40009675 129.56596596 25.11145115 143.32256413 C31.09244709 148.92552872 37.46609738 151.17402383 45.6231699 150.91631413 C52.88850429 149.86842936 58.53731418 146.18392943 63.21301365 140.64287663 C69.28917054 130.28880242 67.4669199 124.60978578 67.4669199 111.50615788 C51.2969199 111.50615788 35.1269199 111.50615788 18.4669199 111.50615788 Z M88.4669199 111.50615788 C87.41683666 126.71843982 87.41683666 126.71843982 92.4669199 139.50615788 C92.84074802 140.07334538 93.21457615 140.64053288 93.5997324 141.22490788 C97.30068069 146.22486451 102.39103935 149.2818279 108.4669199 150.50615788 C116.20003989 151.45583928 122.06216323 149.95837566 128.4669199 145.50615788 C133.34476903 141.11519202 135.35062334 137.85504755 137.4669199 131.50615788 C137.4669199 124.90615788 137.4669199 118.30615788 137.4669199 111.50615788 C121.2969199 111.50615788 105.1269199 111.50615788 88.4669199 111.50615788 Z M158.4669199 111.50615788 C157.94774094 129.8471876 157.94774094 129.8471876 166.4669199 144.50615788 C172.53364326 149.28208903 178.23869327 150.99502971 185.8731699 150.82256413 C192.70706738 149.98891097 198.12675051 146.81080935 202.4669199 141.50615788 C209.68776941 131.41337958 208.4669199 125.26258627 208.4669199 111.50615788 C191.9669199 111.50615788 175.4669199 111.50615788 158.4669199 111.50615788 Z M229.4669199 111.50615788 C228.04729027 129.20150407 228.04729027 129.20150407 235.36145115 142.71318913 C241.84586109 148.14107606 247.36914676 151.10062235 255.9825449 150.78740788 C263.09553948 149.98216321 268.73753998 146.88372692 273.4669199 141.50615788 C279.86070665 131.27609907 278.4669199 125.19448707 278.4669199 111.50615788 C262.2969199 111.50615788 246.1269199 111.50615788 229.4669199 111.50615788 Z M299.4669199 111.50615788 C298.63879885 129.42723466 298.63879885 129.42723466 306.6153574 143.89678288 C312.5173454 149.02678088 318.91773051 151.39540117 326.72863865 150.98662663 C333.97997925 149.71428013 339.56635365 146.17669489 344.21301365 140.54522038 C350.66796391 130.04838537 348.4669199 125.85440086 348.4669199 111.50615788 C332.2969199 111.50615788 316.1269199 111.50615788 299.4669199 111.50615788 Z M369.4669199 111.50615788 C368.89852228 128.78476774 368.89852228 128.78476774 375.7794199 142.88115788 C381.0993181 148.07733751 386.72433278 150.59132832 394.1544199 150.81865788 C401.49790163 150.7106655 406.99138752 148.17402764 412.3419199 143.19365788 C420.7883018 134.023859 419.4669199 123.43604229 419.4669199 111.50615788 C402.9669199 111.50615788 386.4669199 111.50615788 369.4669199 111.50615788 Z M7.4669199 155.50615788 C6.93324802 156.02565006 6.39957615 156.54514225 5.8497324 157.08037663 C5.10465427 157.77775944 4.35957615 158.47514225 3.5919199 159.19365788 C2.87262302 159.87815006 2.15332615 160.56264225 1.4122324 161.26787663 C-1.5330801 163.50615788 -1.5330801 163.50615788 -11.5330801 168.50615788 C-11.5330801 209.09615788 -11.5330801 249.68615788 -11.5330801 291.50615788 C-5.2630801 291.50615788 1.0069199 291.50615788 7.4669199 291.50615788 C7.47308323 289.09170353 7.47308323 289.09170353 7.47937107 286.62847233 C7.50114621 280.65516503 7.55542072 274.68251793 7.61950779 268.70952702 C7.64270163 266.12463045 7.65708671 263.5396392 7.66247654 260.9546442 C7.67175531 257.23814124 7.71272699 253.52313059 7.75988865 249.80693913 C7.75398968 248.07387264 7.75398968 248.07387264 7.74797153 246.30579472 C7.89333988 238.30777822 7.89333988 238.30777822 10.76110935 234.29985905 C15.28633743 231.30005298 19.04802163 231.37962919 24.43061924 231.37244511 C25.13146898 231.37017955 25.83231873 231.36791399 26.55440634 231.36557978 C28.90262098 231.35925019 31.25077775 231.36006848 33.59899998 231.3608942 C35.28279285 231.35790204 36.96658504 231.35449938 38.65037632 231.35071659 C43.2248474 231.34187761 47.79929978 231.3395385 52.37377858 231.3389008 C56.19327101 231.33795125 60.01275907 231.33427237 63.83224982 231.33072871 C72.84499691 231.32258432 81.85773401 231.32014444 90.87048435 231.32085514 C100.16467798 231.32145575 109.45881352 231.31090728 118.75299245 231.29511148 C126.73443557 231.28203055 134.71585973 231.27667149 142.69731349 231.27731055 C147.46335369 231.2775654 152.2293423 231.27472137 156.99537182 231.2641325 C161.47937742 231.2544424 165.9632822 231.25437862 170.44729137 231.26164913 C172.09077699 231.26269388 173.73426891 231.26033861 175.37774372 231.25428867 C177.62603695 231.24655001 179.87398365 231.25122579 182.12226963 231.25891972 C183.37900895 231.25837495 184.63574827 231.25783018 185.9305706 231.25726891 C189.72656874 231.52443201 192.90075591 232.17862899 196.4669199 233.50615788 C199.31339968 239.3236694 198.81283571 245.97785105 198.8809824 252.34600163 C198.91003162 254.02914211 198.91003162 254.02914211 198.9396677 255.74628544 C198.99920006 259.31200018 199.04574368 262.87774765 199.0919199 266.44365788 C199.13012389 268.86880176 199.16917702 271.29393243 199.2091074 273.7190485 C199.30488007 279.64797695 199.38900844 285.5769689 199.4669199 291.50615788 C205.7369199 291.50615788 212.0069199 291.50615788 218.4669199 291.50615788 C218.49270115 288.951236 218.5184824 286.39631413 218.5450449 283.76397038 C218.58358243 281.25832988 218.62870453 278.75288709 218.67443943 276.24736881 C218.70246744 274.5212297 218.72377131 272.79496658 218.73791599 271.06865788 C218.93528196 248.33209898 218.93528196 248.33209898 226.7325449 239.88506413 C234.30664459 233.86331369 242.61033815 231.01711493 252.15051365 231.69756413 C260.87086189 232.84656979 267.29162061 236.48647128 272.8419199 243.31865788 C279.76638519 252.49053734 279.00249261 263.69000839 279.1544199 274.56865788 C279.18764498 276.21386652 279.22213931 277.85905004 279.25793552 279.50420475 C279.3445999 283.50487434 279.40516273 287.50471915 279.4669199 291.50615788 C285.7369199 291.50615788 292.0069199 291.50615788 298.4669199 291.50615788 C298.49270115 289.0234235 298.5184824 286.54068913 298.5450449 283.98272038 C298.5835878 281.54657571 298.62870809 279.11063402 298.67443943 276.67461491 C298.70245904 274.99698109 298.72376699 273.31921992 298.73791599 271.64141178 C298.84878987 259.2309287 299.42491945 248.7426946 308.42395115 239.26397038 C314.81451055 233.7654011 322.08088741 231.28409782 330.4669199 231.50615788 C336.81218509 232.0558237 341.56697061 233.72059856 346.77551365 237.38506413 C348.585381 238.69038992 348.585381 238.69038992 351.4669199 239.50615788 C352.52551365 241.31475163 352.52551365 241.31475163 353.4669199 243.50615788 C353.97932224 244.51356022 353.97932224 244.51356022 354.50207615 245.54131413 C354.84109959 246.21033756 355.18012302 246.879361 355.5294199 247.56865788 C356.04182224 248.57606022 356.04182224 248.57606022 356.56457615 249.60381413 C358.65207775 254.00473742 358.68285873 258.12065925 358.78332615 262.89287663 C358.80410725 263.70988544 358.82488834 264.52689426 358.84629917 265.36866093 C358.91165069 267.97690821 358.97061263 270.58525563 359.0294199 273.19365788 C359.07261882 274.96254841 359.11623355 276.73142885 359.16027927 278.5002985 C359.26809946 282.83548384 359.36727962 287.17074589 359.4669199 291.50615788 C365.7369199 291.50615788 372.0069199 291.50615788 378.4669199 291.50615788 C378.4669199 250.91615788 378.4669199 210.32615788 378.4669199 168.50615788 C373.0219199 165.53615788 373.0219199 165.53615788 367.4669199 162.50615788 C364.68210728 160.20404611 362.04317902 158.00121685 359.4669199 155.50615788 C358.5181699 156.37240788 357.5694199 157.23865788 356.5919199 158.13115788 C345.61721137 167.45304885 334.63876197 171.20063677 320.24426365 170.84990788 C309.67346446 169.88793235 301.67028266 166.07799681 293.4669199 159.50615788 C292.4356699 158.70178288 291.4044199 157.89740788 290.3419199 157.06865788 C289.7231699 156.55303288 289.1044199 156.03740788 288.4669199 155.50615788 C287.93324802 156.02565006 287.39957615 156.54514225 286.8497324 157.08037663 C275.96900988 167.2645823 265.16519072 171.05446368 250.35363865 170.81865788 C237.38534107 169.77598068 228.0111807 163.82679549 218.4669199 155.50615788 C218.02863865 155.941861 217.5903574 156.37756413 217.1387949 156.82647038 C206.46315232 166.85115914 194.55545546 171.07687647 180.1231699 170.81475163 C167.19871445 169.72390549 157.30639064 163.51829833 147.4669199 155.50615788 C146.91777927 156.15971256 146.91777927 156.15971256 146.3575449 156.82647038 C138.73238674 165.21414435 128.23480605 170.02557999 116.99426365 170.72100163 C101.30153399 171.11371258 88.98049332 166.25215973 77.4669199 155.50615788 C76.93324802 156.02565006 76.39957615 156.54514225 75.8497324 157.08037663 C64.96900988 167.2645823 54.16519072 171.05446368 39.35363865 170.81865788 C26.38534107 169.77598068 17.0111807 163.82679549 7.4669199 155.50615788 Z M28.4669199 251.50615788 C28.4669199 264.70615788 28.4669199 277.90615788 28.4669199 291.50615788 C77.9669199 291.50615788 127.4669199 291.50615788 178.4669199 291.50615788 C178.4669199 278.30615788 178.4669199 265.10615788 178.4669199 251.50615788 C128.9669199 251.50615788 79.4669199 251.50615788 28.4669199 251.50615788 Z M244.6544199 252.63115788 C241.29084933 254.2980079 241.29084933 254.2980079 239.4669199 257.50615788 C239.29546175 260.12024933 239.23458558 262.62485462 239.2716074 265.23662663 C239.27443729 265.98704731 239.27726719 266.73746799 239.28018284 267.5106287 C239.29136928 269.90513462 239.31647062 272.29926519 239.3419199 274.69365788 C239.3519517 276.31800143 239.36107721 277.94235085 239.36926365 279.56670475 C239.3896013 283.54678308 239.42875158 287.52605079 239.4669199 291.50615788 C245.7369199 291.50615788 252.0069199 291.50615788 258.4669199 291.50615788 C258.53594723 287.03983385 258.59562923 282.57537433 258.63171482 278.10894108 C258.64676343 276.59097349 258.66720728 275.07304911 258.69323826 273.55523014 C258.72979643 271.3681911 258.74668513 269.18172891 258.75988865 266.99443913 C258.7755991 265.67999821 258.79130955 264.36555729 258.80749607 263.01128483 C258.4438193 259.26841214 257.76384237 257.44679112 255.4669199 254.50615788 C251.22032524 251.89286886 249.49673731 251.20227733 244.6544199 252.63115788 Z M320.80554295 256.14385319 C318.9455804 259.42617994 319.09298676 262.44904424 319.17395115 266.11553288 C319.17819599 266.84234257 319.18244083 267.56915226 319.18681431 268.31798649 C319.2035586 270.63109292 319.24120105 272.94331642 319.2794199 275.25615788 C319.29447232 276.82775984 319.30815975 278.39937552 319.32043552 279.97100163 C319.3508922 283.81666451 319.40961597 287.66042722 319.4669199 291.50615788 C325.7369199 291.50615788 332.0069199 291.50615788 338.4669199 291.50615788 C338.58208958 286.91472673 338.68148953 282.32835472 338.7415781 277.73662663 C338.76663617 276.17688309 338.80069291 274.61725598 338.84411716 273.05791569 C338.90516183 270.80859945 338.93321416 268.56084227 338.95520115 266.31084538 C338.99391079 265.27454487 338.99391079 265.27454487 339.03340244 264.217309 C339.03559215 260.38918197 338.44630915 258.01939683 336.08874607 255.08477116 C333.71280192 252.4403111 333.71280192 252.4403111 331.0294199 251.44365788 C326.81381177 251.54647759 323.7858604 253.20601785 320.80554295 256.14385319 Z M-31.5330801 312.50615788 C-31.5330801 358.37615788 -31.5330801 404.24615788 -31.5330801 451.50615788 C-18.6630801 451.50615788 -5.7930801 451.50615788 7.4669199 451.50615788 C7.4669199 405.63615788 7.4669199 359.76615788 7.4669199 312.50615788 C-5.4030801 312.50615788 -18.2730801 312.50615788 -31.5330801 312.50615788 Z M28.4669199 312.50615788 C28.4669199 358.37615788 28.4669199 404.24615788 28.4669199 451.50615788 C130.7669199 451.50615788 233.0669199 451.50615788 338.4669199 451.50615788 C338.4669199 405.63615788 338.4669199 359.76615788 338.4669199 312.50615788 C236.1669199 312.50615788 133.8669199 312.50615788 28.4669199 312.50615788 Z M359.4669199 312.50615788 C359.4669199 358.37615788 359.4669199 404.24615788 359.4669199 451.50615788 C372.3369199 451.50615788 385.2069199 451.50615788 398.4669199 451.50615788 C398.4669199 405.63615788 398.4669199 359.76615788 398.4669199 312.50615788 C385.5969199 312.50615788 372.7269199 312.50615788 359.4669199 312.50615788 Z M-52.5330801 472.50615788 C-52.5330801 479.10615788 -52.5330801 485.70615788 -52.5330801 492.50615788 C103.2269199 492.50615788 258.9869199 492.50615788 419.4669199 492.50615788 C419.4669199 485.90615788 419.4669199 479.30615788 419.4669199 472.50615788 C263.7069199 472.50615788 107.9469199 472.50615788 -52.5330801 472.50615788 Z " fill="#000000" transform="translate(72.53308010101318,-0.5061578750610352)"/>
<path d="M0 0 C0.83392885 -0.00583219 1.66785769 -0.01166439 2.52705711 -0.01767331 C3.89353271 -0.01200433 3.89353271 -0.01200433 5.28761387 -0.00622082 C6.74527687 -0.01195914 6.74527687 -0.01195914 8.2323876 -0.01781338 C11.49739738 -0.02815433 14.76223167 -0.02414913 18.02725315 -0.02018261 C20.36453 -0.02452846 22.70180542 -0.02971118 25.03907871 -0.03567028 C31.39436279 -0.04908484 37.74958748 -0.04963623 44.10488296 -0.04710698 C50.07593165 -0.04590397 56.04697026 -0.05211083 62.01801593 -0.05754044 C74.56620228 -0.0684188 87.11436176 -0.06625206 99.66254962 -0.06015559 C111.14350235 -0.05498594 122.62437025 -0.06624259 134.1053062 -0.08525381 C145.89262437 -0.10462282 157.67990239 -0.11288988 169.46723658 -0.10913056 C176.08546188 -0.10731473 182.70360949 -0.10998384 189.32182217 -0.1238451 C195.54424996 -0.13638927 201.76650754 -0.13451164 207.98893261 -0.12143421 C210.27505519 -0.11906147 212.56118962 -0.12182793 214.84729862 -0.13005733 C217.96342673 -0.14046734 221.07897762 -0.13247016 224.19508457 -0.11974621 C225.10383758 -0.12712049 226.01259059 -0.13449478 226.94888157 -0.14209253 C231.72697568 -0.1009305 234.92471632 0.14339642 238.80484104 3.25447559 C241.21984556 6.572486 241.0636349 9.7638276 241.07949924 13.77962208 C241.08461018 14.42566395 241.08972111 15.07170582 241.09498692 15.73732471 C241.10885439 17.86683458 241.10792837 19.99601977 241.10562229 22.12556934 C241.10951079 23.61003203 241.11384578 25.0944936 241.11860752 26.57895374 C241.12606359 29.68836037 241.12578293 32.79765343 241.12051487 35.90706348 C241.1147209 39.88619705 241.13165202 43.86486505 241.15485954 47.84392166 C241.16961143 50.90919163 241.17046663 53.97434984 241.16734982 57.03964901 C241.1678623 58.50642856 241.17308631 59.97321449 241.18316174 61.43995953 C241.1955377 63.49358983 241.18872872 65.54631806 241.17715549 67.59993458 C241.17778492 68.7670145 241.17841434 69.93409443 241.17906284 71.13654041 C240.757931 74.64531989 239.97324821 76.4803255 237.80484104 79.25447559 C234.98782896 80.96716363 232.88680999 81.50499918 229.60968208 81.50895119 C228.35878881 81.51769948 228.35878881 81.51769948 227.08262497 81.5266245 C225.71614938 81.52095552 225.71614938 81.52095552 224.32206821 81.515172 C222.86440522 81.52091033 222.86440522 81.52091033 221.37729448 81.52676457 C218.1122847 81.53710552 214.84745041 81.53310032 211.58242893 81.5291338 C209.24515208 81.53347965 206.90787666 81.53866237 204.57060337 81.54462147 C198.2153193 81.55803603 191.8600946 81.55858742 185.50479913 81.55605817 C179.53375044 81.55485515 173.56271182 81.56106202 167.59166615 81.56649163 C155.04347981 81.57736999 142.49532033 81.57520325 129.94713246 81.56910678 C118.46617973 81.56393713 106.98531183 81.57519377 95.50437588 81.594205 C83.71705771 81.61357401 71.9297797 81.62184106 60.1424455 81.61808175 C53.5242202 81.61626591 46.9060726 81.61893503 40.28785992 81.63279629 C34.06543213 81.64534046 27.84317455 81.64346282 21.62074947 81.6303854 C19.33462689 81.62801266 17.04849246 81.63077912 14.76238346 81.63900852 C11.64625535 81.64941852 8.53070446 81.64142135 5.41459751 81.6286974 C4.5058445 81.63607168 3.59709149 81.64344597 2.66080052 81.65104371 C-2.11729359 81.60988169 -5.31503424 81.36555477 -9.19515896 78.25447559 C-11.61016347 74.93646518 -11.45395282 71.74512359 -11.46981716 67.72932911 C-11.47492809 67.08328724 -11.48003902 66.43724537 -11.48530483 65.77162647 C-11.4991723 63.64211661 -11.49824628 61.51293142 -11.49594021 59.38338184 C-11.49982871 57.89891916 -11.5041637 56.41445758 -11.50892544 54.92999744 C-11.51638151 51.82059082 -11.51610085 48.71129775 -11.51083279 45.6018877 C-11.50503882 41.62275413 -11.52196993 37.64408613 -11.54517746 33.66502953 C-11.55992935 30.59975956 -11.56078454 27.53460135 -11.55766773 24.46930218 C-11.55818021 23.00252263 -11.56340423 21.5357367 -11.57347965 20.06899166 C-11.58585562 18.01536136 -11.57904663 15.96263313 -11.56747341 13.90901661 C-11.56810284 12.74193668 -11.56873226 11.57485676 -11.56938076 10.37241077 C-11.14824892 6.8636313 -10.36356612 5.02862569 -8.19515896 2.25447559 C-5.37814688 0.54178756 -3.2771279 0.00395201 0 0 Z M9.80484104 21.25447559 C9.80484104 34.12447559 9.80484104 46.99447559 9.80484104 60.25447559 C79.10484104 60.25447559 148.40484104 60.25447559 219.80484104 60.25447559 C219.80484104 47.38447559 219.80484104 34.51447559 219.80484104 21.25447559 C150.50484104 21.25447559 81.20484104 21.25447559 9.80484104 21.25447559 Z " fill="#000000" transform="translate(141.19515895843506,340.7455244064331)"/>
</svg>
