<?xml version="1.0" encoding="UTF-8"?>
<svg version="1.1" xmlns="http://www.w3.org/2000/svg" width="512" height="512">
<path d="M0 0 C0.94875 0.86625 1.8975 1.7325 2.875 2.625 C16.76127688 15.15283675 36.54608601 17.07432947 54.35839844 16.20263672 C66.6700684 15.25821102 77.72744658 10.71907575 88 4 C89.16982422 2.60587891 89.16982422 2.60587891 90.36328125 1.18359375 C93 -1 93 -1 94.86108398 -1.18579102 C97.29256623 -0.9496686 99.61060028 -0.51048697 102 0 C102.96228516 0.18208008 103.92457031 0.36416016 104.91601562 0.55175781 C129.67468121 5.39382997 156.92701096 11.78185834 177 28 C178.24136719 28.98033203 178.24136719 28.98033203 179.5078125 29.98046875 C202.73117404 49.47530894 207.76075199 79.77253174 210.54296875 108.3359375 C211.38558215 118.00310367 211.60256015 127.69944597 211.86962891 137.39599609 C211.99648034 140.90270184 212.21368437 144.39365669 212.44921875 147.89453125 C213.41478748 165.56756216 213.41478748 165.56756216 208.82666016 171.48364258 C206.43390448 173.98783591 203.82168943 176.00401417 201 178 C200.43265137 178.4326416 199.86530273 178.8652832 199.28076172 179.31103516 C170.51008796 201.19148908 132.98908143 207.80996193 98 212 C97.02869141 212.12004395 96.05738281 212.24008789 95.05664062 212.36376953 C32.28394717 219.7326424 -54.9693679 219.22159592 -107.375 179.0625 C-109.5234375 177.34765625 -109.5234375 177.34765625 -112 175 C-113.01247803 174.07791748 -113.01247803 174.07791748 -114.04541016 173.13720703 C-117.952298 169.25973982 -120.48241993 166.35235879 -120.8515625 160.734375 C-120.81984832 158.73840621 -120.7413008 156.74282998 -120.625 154.75 C-120.59116211 153.64591797 -120.55732422 152.54183594 -120.52246094 151.40429688 C-120.41436922 148.2875106 -120.2656805 145.17551641 -120.10144043 142.0612793 C-119.95791469 139.14482239 -119.85588829 136.22723636 -119.75016785 133.3092041 C-118.40804548 97.07213816 -116.82039347 58.2696451 -89.359375 31.41796875 C-68.37778027 12.75810786 -40.04857499 6.443494 -13.375 0.5625 C-12.59987061 0.38638184 -11.82474121 0.21026367 -11.02612305 0.02880859 C-7.07520027 -0.80532893 -3.85811514 -1.36292111 0 0 Z " fill="#000000" transform="translate(210,260)"/>
<path d="M0 0 C1.22356201 0.00491455 2.44712402 0.0098291 3.70776367 0.01489258 C25.79571205 0.29951228 48.38395839 5.17087591 64.625 21.125 C69.42425511 26.05712231 73.22400781 31.0964558 76.25 37.3125 C76.76046875 38.33601563 77.2709375 39.35953125 77.796875 40.4140625 C90.78239041 68.37791993 92.77304062 107.67201615 85.25 137.3125 C85.08371094 137.98200684 84.91742188 138.65151367 84.74609375 139.34130859 C78.47955792 163.64734434 64.21249162 187.05482555 43.25 201.3125 C23.78907115 212.69766908 3.46018082 216.90399301 -18.8125 212.25 C-41.48416941 205.81236548 -60.31569773 189.67873943 -71.84130859 169.39160156 C-83.04768305 148.80846481 -87.97823534 127.85423109 -87.9375 104.5 C-87.93609512 103.46446991 -87.93609512 103.46446991 -87.93466187 102.40802002 C-87.85511038 75.32994676 -85.72166715 43.58146463 -65.7409668 23.14550781 C-64.42504717 21.8530096 -63.08827666 20.58183513 -61.75 19.3125 C-61.16734375 18.71179688 -60.5846875 18.11109375 -59.984375 17.4921875 C-44.81681451 2.86085389 -19.96541388 -0.09570084 0 0 Z " fill="#000000" transform="translate(255.75,37.6875)"/>
<path d="M0 0 C14.97252166 12.50790904 19.85075289 32.68081969 21.80371094 51.31298828 C24.02063111 81.66052984 20.76621226 110.45894412 1.5859375 135.1015625 C-10.63962457 149.19006736 -26.33670581 158.05317694 -45 160 C-58.19803981 160.53752017 -70.4393513 157.34702282 -82 151 C-81.42153305 146.57059595 -79.58744858 143.29019098 -77.375 139.5 C-67.22457526 121.27709964 -61.90961424 99.563658 -61.796875 78.76953125 C-61.78986069 77.90499329 -61.78284637 77.04045532 -61.77561951 76.14971924 C-61.75818492 73.3705928 -61.75176631 70.59167913 -61.75 67.8125 C-61.74932526 66.86559296 -61.74865051 65.91868591 -61.74795532 64.94308472 C-61.76329229 51.43064248 -61.98020388 38.2315132 -65 25 C-65.18224121 24.18112305 -65.36448242 23.36224609 -65.55224609 22.51855469 C-67.61366042 13.49792961 -70.1018384 4.87385714 -73.984375 -3.5546875 C-75.01447686 -6.03485582 -75.56409856 -8.356163 -76 -11 C-51.16178963 -17.68721048 -20.86994155 -16.35752176 0 0 Z " fill="#000000" transform="translate(427,73)"/>
<path d="M0 0 C-0.60985359 3.69889459 -1.68490545 6.72735803 -3.25 10.125 C-6.79435398 18.51467027 -9.02565797 27.12855334 -11 36 C-11.25209229 37.10456543 -11.25209229 37.10456543 -11.50927734 38.23144531 C-14.352769 51.40285227 -14.31215216 64.77629835 -14.375 78.1875 C-14.38691879 79.52580368 -14.38691879 79.52580368 -14.39907837 80.8911438 C-14.50691021 96.67536976 -13.04150896 111.91740541 -8.3125 127.0625 C-8.06266357 127.88049072 -7.81282715 128.69848145 -7.55541992 129.54125977 C-4.54327492 138.99952291 -0.52527297 148.35164129 4.73828125 156.78515625 C6 159 6 159 6 162 C-3.58267376 166.60066751 -12.25458794 170.19184923 -23 171 C-24.27875 171.103125 -25.5575 171.20625 -26.875 171.3125 C-45.78676012 170.56077732 -62.46239739 162.12302498 -75.390625 148.4765625 C-83.56675495 138.99336416 -89.375794 128.67334271 -93.375 116.875 C-93.61371826 116.17173584 -93.85243652 115.46847168 -94.09838867 114.74389648 C-97.62530032 103.63253035 -98.3621392 92.60262438 -98.3125 81 C-98.31067719 80.32324219 -98.30885437 79.64648438 -98.30697632 78.94921875 C-98.19995573 55.25548707 -95.25422841 31.24863106 -78.37890625 13.2890625 C-58.56353532 -5.77794467 -25.21916124 -6.78977418 0 0 Z " fill="#000000" transform="translate(161,62)"/>
<path d="M0 0 C2.22045898 0.13671875 2.22045898 0.13671875 4.99609375 0.6875 C6.53245483 0.98889893 6.53245483 0.98889893 8.09985352 1.29638672 C9.20127686 1.5285791 10.3027002 1.76077148 11.4375 2 C12.56534912 2.23348145 13.69319824 2.46696289 14.85522461 2.70751953 C24.80442279 4.83551705 34.45240533 7.48620923 44 11 C45.06468506 11.39010254 45.06468506 11.39010254 46.15087891 11.78808594 C59.56472804 16.83953316 71.35197533 24.31799982 80 36 C80.44601562 36.59941406 80.89203125 37.19882812 81.3515625 37.81640625 C96.4033997 59.93244925 96.09919962 91.31663742 96.46032715 116.99050903 C96.48658687 118.6515575 96.52233761 120.31248547 96.56799316 121.97311401 C96.94954132 136.91162741 96.94954132 136.91162741 93.359375 141.28515625 C91.703125 142.74853516 91.703125 142.74853516 90 144 C89.00484375 144.85464844 88.0096875 145.70929688 86.984375 146.58984375 C69.1227478 159.55462388 49.28775063 165.1747223 28 170 C27.96036133 168.98091553 27.92072266 167.96183105 27.87988281 166.91186523 C25.42370583 95.7255628 25.42370583 95.7255628 -10.5625 36.4375 C-19.15055943 28.96320453 -29.40600628 23.14528708 -39.49609375 17.9375 C-41 17 -41 17 -42 15 C-40.25976562 14.85304687 -40.25976562 14.85304687 -38.484375 14.703125 C-23.77608812 13.3475007 -10.87882954 10.87882954 0 0 Z " fill="#000000" transform="translate(416,238)"/>
<path d="M0 0 C0.88558594 0.86044922 0.88558594 0.86044922 1.7890625 1.73828125 C11.21447439 10.78266585 26.30423004 11.92370592 38.625 12.5 C35.59305374 15.86071151 32.59631718 17.73064073 28.5625 19.75 C3.73593325 32.80199818 -12.52129638 53.67053996 -21.06640625 80.078125 C-29.66922181 108.29186142 -30.1261399 138.26501467 -31.375 167.5 C-54.20545878 162.53830461 -85.63294928 155.46710367 -99.375 134.5 C-99.74409637 131.76571924 -99.89064668 129.45057397 -99.8359375 126.7265625 C-99.83592743 125.97450027 -99.83591736 125.22243805 -99.83590698 124.44758606 C-99.8289125 122.00602697 -99.79114039 119.56620511 -99.75 117.125 C-99.7336005 115.43758568 -99.71765228 113.75016692 -99.70214844 112.06274414 C-99.33522305 81.49796993 -98.20056968 48.77350455 -76.2890625 25.26171875 C-61.76856921 11.36199005 -41.57866008 5.86060351 -22.59033203 1.0625 C-21.10906691 0.6863886 -19.63080022 0.29827192 -18.15576172 -0.1015625 C-4.74166821 -3.68901786 -4.74166821 -3.68901786 0 0 Z " fill="#000000" transform="translate(99.375,240.5)"/>
</svg>
