<?xml version="1.0" encoding="UTF-8"?>
<svg version="1.1" xmlns="http://www.w3.org/2000/svg" width="16" height="16">
<path d="M0 0 C1.134375 0.020625 2.26875 0.04125 3.4375 0.0625 C3.4375 0.7225 3.4375 1.3825 3.4375 2.0625 C1.4575 2.0625 -0.5225 2.0625 -2.5625 2.0625 C-2.5625 5.3625 -2.5625 8.6625 -2.5625 12.0625 C0.7375 12.0625 4.0375 12.0625 7.4375 12.0625 C7.4375 10.0825 7.4375 8.1025 7.4375 6.0625 C8.0975 6.0625 8.7575 6.0625 9.4375 6.0625 C9.47991723 8.39544775 9.47842937 10.72952567 9.4375 13.0625 C8.4375 14.0625 8.4375 14.0625 5.49609375 14.16015625 C3.70365234 14.14275391 3.70365234 14.14275391 1.875 14.125 C0.07869141 14.11146484 0.07869141 14.11146484 -1.75390625 14.09765625 C-2.68074219 14.08605469 -3.60757812 14.07445312 -4.5625 14.0625 C-4.58935938 11.91673363 -4.60883088 9.77087355 -4.625 7.625 C-4.63660156 6.43003906 -4.64820313 5.23507812 -4.66015625 4.00390625 C-4.51766709 -0.28786723 -4.40551892 0.07728981 0 0 Z " fill="#000000" transform="translate(4.5625,1.9375)"/>
<path d="M0 0 C1.32 0 2.64 0 4 0 C4 1.32 4 2.64 4 4 C3.34 4 2.68 4 2 4 C1.7525 4.598125 1.505 5.19625 1.25 5.8125 C-0.19192497 8.33586869 -1.52549626 9.50030076 -4 11 C-4.99 11 -5.98 11 -7 11 C-6.52354792 6.71193127 -5.34097516 4.73352513 -2 2 C-1.34 2 -0.68 2 0 2 C0 1.34 0 0.68 0 0 Z " fill="#000000" transform="translate(12,0)"/>
</svg>
