<?xml version="1.0" encoding="UTF-8"?>
<svg version="1.1" xmlns="http://www.w3.org/2000/svg" width="386" height="518">
<path d="M0 0 C0.83614838 -0.0065712 1.67229675 -0.0131424 2.53378296 -0.01991272 C5.30352876 -0.03963716 8.0732203 -0.05130761 10.84301758 -0.0612793 C11.79011408 -0.06535482 12.73721058 -0.06943035 13.71300697 -0.07362938 C18.72777717 -0.0944884 23.74252003 -0.10878976 28.75732422 -0.11816406 C33.92783087 -0.12921649 39.09790575 -0.16360346 44.26826 -0.20333576 C48.25151855 -0.22953003 52.23467476 -0.23785849 56.21801186 -0.24144554 C58.12332379 -0.24630574 60.02863133 -0.25790352 61.93385887 -0.27648354 C64.60729138 -0.30093055 67.27961406 -0.29989973 69.953125 -0.29296875 C70.73316391 -0.30577881 71.51320282 -0.31858887 72.31687927 -0.33178711 C78.88841453 -0.27001378 84.01072631 1.78262776 89.00708008 6.0715332 C95.69461998 14.06078404 97.94419847 21.22732036 97.96118164 31.65429688 C97.968629 32.75783508 97.968629 32.75783508 97.97622681 33.88366699 C97.99078429 36.3082779 97.99764066 38.73282333 98.00317383 41.1574707 C98.00741489 42.40613135 98.00741489 42.40613135 98.01174164 43.68001747 C98.02671062 48.08762553 98.03595377 52.49520107 98.0402832 56.90283203 C98.04575593 61.43404995 98.06976509 65.96496558 98.09825516 70.49608898 C98.11697253 73.99903707 98.12209202 77.50191376 98.12361908 81.00490761 C98.12662702 82.67410237 98.13459199 84.34329645 98.14780426 86.01244164 C98.23757705 98.22829014 97.83805833 108.52766077 89.70239258 118.26293945 C83.62604565 124.37671768 77.17637829 125.32412081 68.88549805 125.35400391 C68.09143051 125.3605751 67.29736298 125.3671463 66.47923279 125.37391663 C63.85439958 125.39360592 61.22962356 125.40530439 58.60473633 125.4152832 C57.25540701 125.42139649 57.25540701 125.42139649 55.87881851 125.42763329 C51.11460858 125.44847851 46.35042728 125.46278518 41.58618164 125.47216797 C36.68380942 125.48321049 31.78189382 125.51758984 26.87968254 125.55733967 C23.09450481 125.58358459 19.30943443 125.59186692 15.52417374 125.59544945 C13.71820121 125.60029749 11.91223291 125.61186022 10.10634995 125.63048744 C-10.23382818 125.82719916 -10.23382818 125.82719916 -18.82104492 119.1340332 C-19.42045898 118.42633789 -20.01987305 117.71864258 -20.63745117 116.98950195 C-21.25491211 116.29469727 -21.87237305 115.59989258 -22.50854492 114.8840332 C-28.36545937 105.51026481 -27.65720121 95.34537165 -27.63354492 84.7121582 C-27.63811332 82.91051539 -27.64342085 81.10887431 -27.64942932 79.30723572 C-27.65833307 75.54247938 -27.65596851 71.77793549 -27.64599609 68.01318359 C-27.63450849 63.21065283 -27.65472862 58.4088576 -27.68391323 53.60642338 C-27.70233971 49.88898635 -27.70197 46.17172352 -27.69627571 42.45425224 C-27.69612329 40.68458461 -27.70210133 38.91490457 -27.71456718 37.14528084 C-27.78020583 26.3015786 -27.32917151 17.81324892 -21.44995117 8.36450195 C-14.99675603 2.09056223 -8.88021642 0.03021925 0 0 Z " fill="#70C836" transform="translate(158.199951171875,392.822998046875)"/>
<path d="M0 0 C1.91710545 -0.00082995 3.83421083 -0.0032941 5.75131226 -0.00730896 C9.7540244 -0.01015629 13.75617367 0.00443252 17.75878906 0.03198242 C22.8742887 0.06610952 27.98878582 0.06002138 33.10433388 0.04131985 C37.05763016 0.03072449 41.01069536 0.03970993 44.96397018 0.05470467 C46.84970792 0.05986521 48.73547 0.05943068 50.62120438 0.05315971 C53.26052587 0.04767482 55.89843715 0.06818442 58.53759766 0.09545898 C59.30663925 0.08893311 60.07568085 0.08240723 60.86802673 0.07568359 C67.38678191 0.18953238 72.52368138 2.26849613 77.48046875 6.5234375 C84.16800866 14.51268834 86.41758714 21.67922466 86.43457031 32.10620117 C86.44201767 33.20973938 86.44201767 33.20973938 86.44961548 34.33557129 C86.46417296 36.7601822 86.47102933 39.18472763 86.4765625 41.609375 C86.48080357 42.85803565 86.48080357 42.85803565 86.48513031 44.13192177 C86.50009929 48.53952983 86.50934244 52.94710537 86.51367188 57.35473633 C86.51914461 61.88595425 86.54315377 66.41686987 86.57164383 70.94799328 C86.59036121 74.45094136 86.59548069 77.95381806 86.59700775 81.4568119 C86.60001569 83.12600667 86.60798066 84.79520075 86.62119293 86.46434593 C86.71354164 99.03071306 86.36948746 110.04477557 77.2734375 119.62890625 C70.86429907 124.81076286 64.17715431 125.92950649 56.11010742 125.91943359 C55.32535538 125.92615082 54.54060333 125.93286804 53.73207092 125.93978882 C51.15595036 125.95867649 48.58009161 125.96268834 46.00390625 125.96484375 C44.19940589 125.9712782 42.39490655 125.97800703 40.59040833 125.98501587 C36.81374698 125.99696564 33.03717695 126.00069908 29.26049805 125.99951172 C24.44224956 125.99930869 19.62459192 126.02660483 14.80648327 126.06105614 C11.08048358 126.08339103 7.35462459 126.08734724 3.62856483 126.08629227 C1.85330483 126.08863854 0.07804036 126.09740666 -1.69715309 126.112957 C-22.19147213 126.27567698 -22.19147213 126.27567698 -29.72346497 119.95248413 C-39.48588682 109.82370277 -39.32789575 98.2707652 -39.2578125 85.06640625 C-39.26051238 83.26619254 -39.26439891 81.46598025 -39.26940918 79.66577148 C-39.27528093 75.9069215 -39.26681675 72.14845372 -39.24804688 68.38964844 C-39.22525863 63.59496123 -39.23839427 58.80116992 -39.26233673 54.0065155 C-39.2768579 50.29334888 -39.27215992 46.58039127 -39.26182556 42.86721802 C-39.25917569 41.10035086 -39.2623661 39.33346413 -39.27174377 37.56661987 C-39.31781048 26.45029199 -38.76183936 17.91919076 -32.6015625 8.31640625 C-22.93145235 -0.72304454 -12.47720482 -0.09799697 0 0 Z " fill="#70C836" transform="translate(169.7265625,262.37109375)"/>
<path d="M0 0 C1.26994812 -0.01051392 1.26994812 -0.01051392 2.56555176 -0.02124023 C5.34091812 -0.03872543 8.11524979 -0.02723152 10.890625 -0.01367188 C12.83300979 -0.01636952 14.77539325 -0.0202542 16.71777344 -0.02526855 C20.77942827 -0.03115077 24.84073011 -0.02264185 28.90234375 -0.00390625 C34.0940969 0.01888245 39.28502277 0.00575251 44.47674561 -0.01819611 C48.48492605 -0.03268862 52.49291216 -0.02803227 56.50109863 -0.01768494 C58.41475524 -0.01502719 60.32842981 -0.01825371 62.24206543 -0.02760315 C64.92226526 -0.03782585 67.60114764 -0.0221886 70.28125 0 C71.06278442 -0.00809692 71.84431885 -0.01619385 72.64953613 -0.02453613 C79.21377094 0.07553387 84.32039647 2.14159798 89.34765625 6.37695312 C96.69715207 15.03183385 98.25045419 23.37091416 98.28588867 34.67114258 C98.28924728 35.34860535 98.2926059 36.02606812 98.29606628 36.72406006 C98.30549252 38.9430123 98.3075152 41.16188841 98.30859375 43.38085938 C98.31181223 44.93873627 98.31517674 46.49661286 98.31867981 48.05448914 C98.32465036 51.31327006 98.32652186 54.57202454 98.32592773 57.83081055 C98.32582626 61.98301043 98.33947278 66.13503876 98.35669994 70.28719807 C98.3678814 73.50362408 98.36984506 76.72000942 98.36931801 79.93645287 C98.3704891 81.46608254 98.37486125 82.99571358 98.38265038 84.52532387 C98.44194501 97.37213741 98.47493582 108.70561261 89.28125 118.49804688 C82.89382777 124.50172862 76.67268814 125.81896295 67.97729492 125.80810547 C67.19254288 125.81482269 66.40779083 125.82153992 65.59925842 125.82846069 C63.02313786 125.84734836 60.44727911 125.85136021 57.87109375 125.85351562 C56.06659339 125.85995007 54.26209405 125.86667891 52.45759583 125.87368774 C48.68093448 125.88563752 44.90436445 125.88937095 41.12768555 125.88818359 C36.30943706 125.88798056 31.49177942 125.9152767 26.67367077 125.94972801 C22.94767108 125.9720629 19.22181209 125.97601912 15.49575233 125.97496414 C13.72049233 125.97731041 11.94522786 125.98607854 10.17003441 126.00162888 C-10.00173449 126.16178789 -10.00173449 126.16178789 -18.48046875 119.43945312 C-19.07988281 118.72273438 -19.67929687 118.00601563 -20.296875 117.26757812 C-21.22306641 116.20796875 -21.22306641 116.20796875 -22.16796875 115.12695312 C-26.17039365 108.95231148 -27.30701058 103.23038216 -27.26342773 96.04125977 C-27.27029099 95.23524826 -27.27715424 94.42923676 -27.28422546 93.59880066 C-27.30239208 90.95826143 -27.29867065 88.31832213 -27.29296875 85.67773438 C-27.29753537 83.82742624 -27.30284237 81.9771198 -27.30885315 80.1268158 C-27.31776432 76.25773202 -27.31538384 72.38885489 -27.30541992 68.51977539 C-27.29393196 63.57924172 -27.31414925 58.639423 -27.34333706 53.69898319 C-27.3617461 49.88036117 -27.36139726 46.061909 -27.35569954 42.24325371 C-27.3555469 40.42252029 -27.36154308 38.60177493 -27.37399101 36.78108406 C-27.44574815 24.56622374 -26.80622418 15.87442728 -18.8125 6.12304688 C-13.01693271 1.35909057 -7.36978266 -0.07635309 0 0 Z " fill="#70C836" transform="translate(26.859375,262.482421875)"/>
<path d="M0 0 C0.82639481 -0.0065712 1.65278961 -0.0131424 2.50422668 -0.01991272 C5.24150688 -0.03963618 7.97873218 -0.05130743 10.71606445 -0.0612793 C12.12016036 -0.06739259 12.12016036 -0.06739259 13.55262184 -0.07362938 C18.50903731 -0.09448805 23.46542513 -0.10878953 28.421875 -0.11816406 C33.53184982 -0.12921605 38.6413877 -0.1636026 43.75120831 -0.20333576 C47.6881438 -0.22953194 51.62497576 -0.23785866 55.56199074 -0.24144554 C57.44497433 -0.24630529 59.32795349 -0.2579018 61.21085167 -0.27648354 C63.85315511 -0.30093457 66.49433589 -0.29989904 69.13671875 -0.29296875 C69.90740692 -0.30577881 70.67809509 -0.31858887 71.47213745 -0.33178711 C79.19521477 -0.25835267 85.27496273 2.91503117 90.8918457 8.17700195 C98.18256044 17.76546984 97.76112251 28.15790735 97.65356445 39.59106445 C97.6550702 41.4556808 97.65850836 43.32029648 97.66377258 45.18490601 C97.6680818 49.07322034 97.6514321 52.96069888 97.61914062 56.84887695 C97.57930643 61.80960904 97.58869832 66.76878049 97.61337566 71.72956276 C97.62761704 75.57317704 97.61742693 79.41643221 97.59986305 83.26002121 C97.59405273 85.08828243 97.59525665 86.91658101 97.60388756 88.74483109 C97.64016817 100.26042939 97.21264234 108.90119053 89.4543457 118.05200195 C82.37085926 123.92611266 77.88565814 125.32482399 68.85375977 125.33813477 C68.04672607 125.34309967 67.23969238 125.34806458 66.40820312 125.35317993 C63.74128359 125.36777073 61.07442358 125.37459894 58.4074707 125.38012695 C56.54905191 125.38588159 54.69063313 125.39163928 52.83221436 125.3973999 C48.93509648 125.40790157 45.03799917 125.41374948 41.14086914 125.41723633 C36.15991543 125.42271481 31.17923592 125.44673256 26.19836807 125.47520828 C22.35837015 125.49388178 18.51843761 125.4990428 14.67839813 125.5005722 C12.84287774 125.50358937 11.00735824 125.51158611 9.17188263 125.52475739 C6.59688289 125.54191429 4.02254431 125.53991416 1.44750977 125.53344727 C0.69709412 125.54266205 -0.05332153 125.55187683 -0.82647705 125.56137085 C-7.73590629 125.5073268 -14.38656889 123.70669812 -19.65893555 118.9543457 C-26.45304727 110.62194453 -28.22056273 101.50113488 -28.25341797 91.0234375 C-28.25677658 90.34597473 -28.26013519 89.66851196 -28.26359558 88.97052002 C-28.27302182 86.75156778 -28.2750445 84.53269167 -28.27612305 82.3137207 C-28.27934153 80.75584381 -28.28270603 79.19796722 -28.28620911 77.64009094 C-28.29217966 74.38131002 -28.29405116 71.12255553 -28.29345703 67.86376953 C-28.29335556 63.71156965 -28.30700208 59.55954132 -28.32422924 55.40738201 C-28.3354107 52.190956 -28.33737436 48.97457066 -28.33684731 45.75812721 C-28.33801839 44.22849754 -28.34239055 42.6988665 -28.35017967 41.16925621 C-28.40774653 28.6967854 -28.31985013 17.24239283 -20.1081543 7.17700195 C-13.64094408 1.73615787 -8.37870304 0.02885407 0 0 Z " fill="#70C836" transform="translate(289.108154296875,260.822998046875)"/>
<path d="M0 0 C1.26994812 -0.01051392 1.26994812 -0.01051392 2.56555176 -0.02124023 C5.34091812 -0.03872543 8.11524979 -0.02723152 10.890625 -0.01367188 C12.83300979 -0.01636952 14.77539325 -0.0202542 16.71777344 -0.02526855 C20.77942827 -0.03115077 24.84073011 -0.02264185 28.90234375 -0.00390625 C34.0940969 0.01888245 39.28502277 0.00575251 44.47674561 -0.01819611 C48.48492605 -0.03268862 52.49291216 -0.02803227 56.50109863 -0.01768494 C58.41475524 -0.01502719 60.32842981 -0.01825371 62.24206543 -0.02760315 C64.92226526 -0.03782585 67.60114764 -0.0221886 70.28125 0 C71.06278442 -0.00809692 71.84431885 -0.01619385 72.64953613 -0.02453613 C79.21377094 0.07553387 84.32039647 2.14159798 89.34765625 6.37695312 C96.43046065 14.71777388 98.25229553 22.76026585 98.28588867 33.64941406 C98.28924728 34.33648437 98.2926059 35.02355469 98.29606628 35.73144531 C98.3055142 37.98829998 98.30751645 40.24507994 98.30859375 42.50195312 C98.31181121 44.0836795 98.31517564 45.66540558 98.31867981 47.24713135 C98.32465612 50.55896697 98.32652131 53.87077656 98.32592773 57.18261719 C98.32582634 61.40322596 98.33946218 65.62366566 98.35669994 69.84423447 C98.36788125 73.11127471 98.36984505 76.37827492 98.36931801 79.64533234 C98.37048953 81.2000817 98.37486421 82.75483238 98.38265038 84.30956268 C98.44371848 97.76561159 98.11067817 108.66441657 88.73046875 119.08398438 C80.05274988 127.18157719 68.05967127 125.96065566 57.078125 125.91601562 C55.31892781 125.91804002 53.55973145 125.9209545 51.80053711 125.92471313 C48.12573198 125.92911928 44.45114663 125.9227608 40.77636719 125.90869141 C36.08593752 125.89160052 31.39602299 125.90145092 26.70561218 125.9194088 C23.07658059 125.93029302 19.44766942 125.9267791 15.81863403 125.91902542 C14.09001605 125.91703621 12.36138683 125.91943729 10.63278198 125.92646408 C-1.14699923 125.96385014 -11.08358173 125.94638832 -20.1328125 117.41992188 C-25.9331598 111.02904147 -27.00660109 104.87743348 -27.03637695 96.49536133 C-27.04294815 95.68993393 -27.04951935 94.88450653 -27.05628967 94.05467224 C-27.07597826 91.39256692 -27.08767639 88.73051795 -27.09765625 86.06835938 C-27.10173178 85.15652578 -27.1058073 84.24469219 -27.11000633 83.30522728 C-27.13084981 78.47733158 -27.14515804 73.64946414 -27.15454102 68.8215332 C-27.16559186 63.84956353 -27.19998142 58.87804306 -27.23971272 53.90623188 C-27.26593257 50.0704824 -27.27423769 46.234839 -27.27782249 42.3990078 C-27.28267586 40.56708943 -27.294254 38.73517541 -27.31286049 36.90334511 C-27.42980225 24.62556924 -26.84949824 15.92721641 -18.8125 6.12304688 C-13.01693271 1.35909057 -7.36978266 -0.07635309 0 0 Z " fill="#70C836" transform="translate(26.859375,132.482421875)"/>
<path d="M0 0 C1.94095492 -0.00082974 3.88190977 -0.00329308 5.82286072 -0.00730896 C9.87862451 -0.01015858 13.9338335 0.00445375 17.98950195 0.03198242 C23.17340756 0.06608639 28.35632333 0.06003132 33.54027653 0.04131985 C37.5441861 0.03072412 41.54786752 0.03971066 45.55175591 0.05470467 C47.46261351 0.05986651 49.37349514 0.05942907 51.28434944 0.05315971 C53.95969576 0.04767536 56.63365043 0.06818376 59.30883789 0.09545898 C60.08880127 0.08893311 60.86876465 0.08240723 61.67236328 0.07568359 C68.22815478 0.18865051 73.37220777 2.24241784 78.359375 6.5234375 C85.04172737 14.50649106 87.288439 21.67314224 87.3293457 32.09033203 C87.3359169 32.82441788 87.3424881 33.55850372 87.34925842 34.31483459 C87.36890216 36.73463055 87.38063595 39.1543646 87.390625 41.57421875 C87.39470053 42.40541103 87.39877605 43.23660332 87.40297508 44.09298325 C87.42380095 48.49525449 87.43811594 52.89749492 87.44750977 57.29980469 C87.45854827 61.82204711 87.49292836 66.343794 87.53268147 70.86586189 C87.55896523 74.36456142 87.56721212 77.86314512 87.57079124 81.36193466 C87.57562931 83.02752899 87.58716288 84.69311912 87.60582924 86.35861588 C87.72937434 98.11541386 87.02851176 109.17750464 79.15234375 118.62890625 C72.47761589 124.74029391 64.88179926 125.9346169 56.04321289 125.90356445 C55.27621567 125.90867538 54.50921844 125.91378632 53.71897888 125.91905212 C51.20840436 125.9328401 48.69810766 125.9319997 46.1875 125.9296875 C44.42687378 125.93358009 42.66624849 125.93791591 40.90562439 125.94267273 C37.22489368 125.95011153 33.54425894 125.94986049 29.86352539 125.94458008 C25.16524483 125.93878563 20.46735853 125.95572721 15.7691431 125.97892475 C12.13583612 125.99371161 8.50262305 125.99452712 4.86929131 125.99141502 C3.13787492 125.99192565 1.40645292 125.99711441 -0.32493401 126.00722694 C-12.06140887 126.06737669 -22.08518681 126.09356875 -31.12109375 117.59765625 C-36.81245291 111.10796165 -37.9940438 104.1934671 -38.0246582 95.80615234 C-38.0312294 95.02183838 -38.0378006 94.23752441 -38.04457092 93.42944336 C-38.06425875 90.83707575 -38.07595841 88.24476605 -38.0859375 85.65234375 C-38.09001303 84.76382343 -38.09408855 83.87530312 -38.09828758 82.95985794 C-38.11913226 78.25400273 -38.13343912 73.54817651 -38.14282227 68.84228516 C-38.15386421 64.00044449 -38.18824301 59.15906623 -38.22799397 54.31738853 C-38.25424154 50.57853386 -38.26252146 46.83978784 -38.26610374 43.10084915 C-38.27095117 41.31720493 -38.2825121 39.53356496 -38.30114174 37.75001144 C-38.41074113 26.55883373 -38.00624893 17.92620374 -31.66015625 8.31640625 C-22.13211787 -0.78816376 -12.5032426 -0.09676377 0 0 Z " fill="#70C836" transform="translate(168.84765625,132.37109375)"/>
<path d="M0 0 C0.84590195 -0.0065712 1.69180389 -0.0131424 2.56333923 -0.01991272 C5.36555064 -0.03963812 8.16770841 -0.05130779 10.9699707 -0.0612793 C11.92809977 -0.06535482 12.88622883 -0.06943035 13.87339211 -0.07362938 C18.94651702 -0.09448875 24.01961491 -0.10879 29.09277344 -0.11816406 C34.32381198 -0.12921691 39.55442379 -0.16360429 44.7853117 -0.20333576 C48.8148933 -0.22952816 52.84437374 -0.23785833 56.87403297 -0.24144554 C58.80167326 -0.24630617 60.72930919 -0.2579052 62.65686607 -0.27648354 C65.36142773 -0.30092663 68.06489211 -0.29990041 70.76953125 -0.29296875 C71.5589209 -0.30577881 72.34831055 -0.31858887 73.16162109 -0.33178711 C79.76426157 -0.27042039 84.85921759 1.77675353 89.9152832 6.03637695 C90.44508789 6.6602832 90.97489258 7.28418945 91.52075195 7.92700195 C92.06344727 8.5405957 92.60614258 9.15418945 93.1652832 9.78637695 C97.08824505 15.86448493 98.15511905 21.5909615 98.11230469 28.65332031 C98.11916794 29.45933182 98.12603119 30.26534332 98.13310242 31.09577942 C98.15126903 33.73631864 98.1475476 36.37625795 98.1418457 39.0168457 C98.14641233 40.86715384 98.15171933 42.71746028 98.1577301 44.56776428 C98.16664127 48.43684805 98.1642608 52.30572519 98.15429688 56.17480469 C98.14280892 61.11533836 98.1630262 66.05515708 98.19221401 70.99559689 C98.21062306 74.81421891 98.21027421 78.63267107 98.20457649 82.45132637 C98.20442386 84.27205979 98.21042004 86.09280515 98.22286797 87.91349602 C98.29766191 100.64529666 97.59581409 109.7969029 88.5715332 119.5168457 C82.55831135 124.87453813 74.85413801 125.32573773 67.13916016 125.33813477 C66.39371445 125.34309967 65.64826874 125.34806458 64.88023376 125.35317993 C62.42315737 125.36773903 59.96614559 125.37459404 57.5090332 125.38012695 C56.24382371 125.38436802 56.24382371 125.38436802 54.95305443 125.38869476 C50.48709171 125.40366436 46.0211611 125.41290714 41.55517578 125.41723633 C36.96342546 125.42270933 32.37197341 125.44671892 27.78031635 125.47520828 C24.23104523 125.49392353 20.68184458 125.49904503 17.13252831 125.5005722 C15.44100507 125.50358059 13.74948252 125.5115471 12.05800819 125.52475739 C-10.73677481 125.69003806 -10.73677481 125.69003806 -19.53393555 117.2668457 C-26.15248351 109.39812757 -27.39703281 101.0020659 -27.45288086 90.96337891 C-27.45784576 90.27937515 -27.46281067 89.5953714 -27.46792603 88.89064026 C-27.48241701 86.64884397 -27.48932835 84.40711846 -27.49487305 82.1652832 C-27.49770042 81.39233603 -27.5005278 80.61938885 -27.50344086 79.82301903 C-27.51838193 75.73080485 -27.52764292 71.63862545 -27.53198242 67.54638672 C-27.53745334 63.35171358 -27.56146669 59.15736725 -27.58995438 54.96279621 C-27.60871692 51.70854303 -27.61379358 48.45436637 -27.6153183 45.20006371 C-27.61831576 43.65532842 -27.62624398 42.11059353 -27.63950348 40.56591225 C-27.73144476 29.03009199 -27.73393093 17.15159119 -19.9753418 7.86450195 C-13.86707097 1.7420588 -8.51488693 0.02863715 0 0 Z " fill="#70C737" transform="translate(288.291748046875,2.822998046875)"/>
<path d="M0 0 C1.26994812 -0.01051392 1.26994812 -0.01051392 2.56555176 -0.02124023 C5.34091812 -0.03872543 8.11524979 -0.02723152 10.890625 -0.01367188 C12.83300979 -0.01636952 14.77539325 -0.0202542 16.71777344 -0.02526855 C20.77942827 -0.03115077 24.84073011 -0.02264185 28.90234375 -0.00390625 C34.0940969 0.01888245 39.28502277 0.00575251 44.47674561 -0.01819611 C48.48492605 -0.03268862 52.49291216 -0.02803227 56.50109863 -0.01768494 C58.41475524 -0.01502719 60.32842981 -0.01825371 62.24206543 -0.02760315 C64.92226526 -0.03782585 67.60114764 -0.0221886 70.28125 0 C71.06278442 -0.00809692 71.84431885 -0.01619385 72.64953613 -0.02453613 C79.21440005 0.07554346 84.35400281 2.12552191 89.34765625 6.41210938 C96.03000862 14.39516293 98.27672025 21.56181411 98.31762695 31.97900391 C98.32419815 32.71308975 98.33076935 33.4471756 98.33753967 34.20350647 C98.35718341 36.62330242 98.3689172 39.04303648 98.37890625 41.46289062 C98.38298178 42.29408291 98.3870573 43.12527519 98.39125633 43.98165512 C98.4120822 48.38392636 98.42639719 52.78616679 98.43579102 57.18847656 C98.44682952 61.71071898 98.48120961 66.23246588 98.52096272 70.75453377 C98.54724648 74.2532333 98.55549337 77.75181699 98.55907249 81.25060654 C98.56391056 82.91620086 98.57544413 84.581791 98.59411049 86.24728775 C98.724199 98.62676941 97.99487945 109.48205212 89 118.86132812 C82.25913854 124.86579296 75.30971294 125.6686537 66.53393555 125.6628418 C65.42776886 125.66787971 65.42776886 125.66787971 64.29925537 125.67301941 C61.87526742 125.68247328 59.45134896 125.68446976 57.02734375 125.68554688 C55.33112053 125.68876351 53.63489758 125.69212789 51.93867493 125.69563293 C48.38725136 125.70161043 44.83585207 125.70347427 41.28442383 125.70288086 C36.7520826 125.70277936 32.21989846 125.71642513 27.68759441 125.73365307 C24.18469031 125.74481707 20.68182365 125.74679871 17.17890358 125.74627113 C15.50889355 125.74744487 13.83888236 125.75183228 12.16889 125.7596035 C-10.09132089 125.85348807 -10.09132089 125.85348807 -18 119.43164062 C-24.86091202 112.36893707 -27.00147595 105.25652376 -27.03637695 95.69482422 C-27.04294815 94.91051025 -27.04951935 94.12619629 -27.05628967 93.31811523 C-27.0759775 90.72574763 -27.08767716 88.13343792 -27.09765625 85.54101562 C-27.10173178 84.65249531 -27.1058073 83.76397499 -27.11000633 82.84852982 C-27.13085101 78.14267461 -27.14515787 73.43684839 -27.15454102 68.73095703 C-27.16558296 63.88911637 -27.19996176 59.04773811 -27.23971272 54.20606041 C-27.26596029 50.46720573 -27.27424021 46.72845971 -27.27782249 42.98952103 C-27.28266992 41.20587681 -27.29423085 39.42223683 -27.31286049 37.63868332 C-27.43175511 25.49837196 -26.91905149 15.80598548 -18.8125 6.08789062 C-12.96753911 1.38854207 -7.38152546 -0.07647475 0 0 Z " fill="#71C737" transform="translate(157.859375,2.482421875)"/>
<path d="M0 0 C0.82347427 -0.00832352 1.64694855 -0.01664703 2.49537659 -0.02522278 C5.21221683 -0.04927568 7.92881658 -0.0580904 10.64575195 -0.06469727 C12.54279143 -0.07366926 14.43983021 -0.0827912 16.33686829 -0.09205627 C20.31378902 -0.10853751 24.29062568 -0.11624445 28.26757812 -0.11914062 C33.3438128 -0.12451445 38.41924795 -0.16215685 43.49525738 -0.20788479 C47.4151339 -0.23775042 51.33482043 -0.24486629 55.2548008 -0.24586678 C57.12497419 -0.2500525 58.99514901 -0.26242006 60.86520958 -0.28338432 C72.46031936 -0.4029931 81.72496589 -0.40553747 90.5715332 8.05639648 C96.14689008 16.58341289 97.80982569 24.26419336 97.84179688 34.45996094 C97.84515549 35.13742371 97.8485141 35.81488647 97.85197449 36.51287842 C97.86140073 38.73183066 97.8634234 40.95070677 97.86450195 43.16967773 C97.86772043 44.72755462 97.87108494 46.28543122 97.87458801 47.8433075 C97.88055856 51.10208842 97.88243006 54.3608429 97.88183594 57.61962891 C97.88173446 61.77182879 97.89538098 65.92385712 97.91260815 70.07601643 C97.92378961 73.29244244 97.92575326 76.50882778 97.92522621 79.72527122 C97.9263973 81.2549009 97.93076946 82.78453194 97.93855858 84.31414223 C97.99785322 97.16095577 98.03084402 108.49443097 88.8371582 118.28686523 C82.43768978 124.30186947 76.21273847 125.61065786 67.50146484 125.58105469 C66.71350021 125.58616562 65.92553558 125.59127655 65.11369324 125.59654236 C62.52794647 125.61035911 59.94246859 125.6094877 57.35668945 125.60717773 C55.54739789 125.6110688 53.73810724 125.61540431 51.92881775 125.62016296 C48.14375848 125.62760799 44.35879252 125.62734622 40.57373047 125.62207031 C35.73744363 125.61627567 30.90153976 125.63321489 26.0653162 125.65641499 C22.33082366 125.67118779 18.59642264 125.67201924 14.86190605 125.66890526 C13.07942381 125.66941661 11.29693621 125.67461922 9.5144825 125.68471718 C7.01640452 125.69713446 4.51906338 125.69025888 2.02099609 125.67871094 C1.29399506 125.68635468 0.56699402 125.69399841 -0.18203735 125.70187378 C-8.35450839 125.61889637 -14.56695365 122.76095586 -20.54174805 117.20874023 C-26.38696201 110.896946 -27.44757778 104.66929495 -27.51220703 96.33178711 C-27.52199081 95.53117859 -27.5317746 94.73057007 -27.54185486 93.90570068 C-27.57174554 91.25803264 -27.59318294 88.61041516 -27.61206055 85.96264648 C-27.61863237 85.05455734 -27.6252042 84.1464682 -27.63197517 83.21086121 C-27.66454945 78.39897214 -27.68899876 73.58710496 -27.70849609 68.77514648 C-27.72626296 64.80997094 -27.76101136 60.84551274 -27.81103516 56.88061523 C-27.87154834 52.0777966 -27.90201476 47.27563955 -27.91166878 42.47245789 C-27.92017565 40.65134478 -27.93887452 38.83024705 -27.9684124 37.00935364 C-28.13267408 26.3021387 -27.93133989 17.32775977 -21.3034668 8.30639648 C-14.90110428 2.10863768 -8.87575742 0.00765692 0 0 Z " fill="#70C836" transform="translate(27.303466796875,392.693603515625)"/>
<path d="M0 0 C0.85207031 0.32742187 1.70414062 0.65484375 2.58203125 0.9921875 C16.85890324 7.15260156 27.06144415 20.47170168 33.00390625 34.421875 C39.10607642 50.2157272 37.50905261 67.07392387 31.5390625 82.6796875 C29.04808276 88.05362855 25.82833735 92.50344377 22 97 C21.33226563 97.79148437 20.66453125 98.58296875 19.9765625 99.3984375 C9.35194904 110.97097186 -5.02618744 117.00047669 -20.53515625 118.1953125 C-39.04197887 118.94255971 -54.44453791 111.51143677 -67.90234375 99.26953125 C-79.01929987 87.85007292 -84.53857065 70.84400196 -84.42236328 55.21411133 C-83.80301137 38.18598179 -76.97247406 23.13402168 -65 11 C-46.94360916 -4.08212153 -22.04076605 -9.49545128 0 0 Z " fill="#D40000" transform="translate(84,4)"/>
</svg>
