<?xml version="1.0" encoding="UTF-8"?>
<svg version="1.1" xmlns="http://www.w3.org/2000/svg" width="512" height="512">
<path d="M0 0 C1.17193622 -0.00322445 2.34387243 -0.00644889 3.55132186 -0.00977105 C4.85012633 -0.00822245 6.1489308 -0.00667385 7.48709297 -0.00507832 C8.87190187 -0.00694505 10.25671023 -0.00924519 11.64151776 -0.01194364 C15.46021139 -0.01808517 19.27888322 -0.01792529 23.09758067 -0.01674926 C27.21082001 -0.01654585 31.32405223 -0.02205835 35.43728828 -0.02680683 C43.50095619 -0.03512688 51.56461678 -0.03786228 59.62828861 -0.03841921 C66.18045872 -0.03889374 72.73262641 -0.04094534 79.28479576 -0.04411983 C97.84612758 -0.0529302 116.40745361 -0.05753863 134.96878754 -0.05678936 C136.47096076 -0.05672943 136.47096076 -0.05672943 138.00348091 -0.05666828 C139.00614723 -0.0566274 140.00881355 -0.05658652 141.04186369 -0.0565444 C157.29589174 -0.05613785 173.54989664 -0.0657087 189.80391799 -0.07980665 C206.47846526 -0.09415564 223.15300122 -0.10107764 239.82755482 -0.10021287 C249.19505358 -0.09988038 258.56252807 -0.10265004 267.93002129 -0.11339092 C275.90526224 -0.12247654 283.88046792 -0.1246872 291.8557118 -0.1178815 C295.92703165 -0.11460642 299.99828375 -0.11459502 304.06959724 -0.12323475 C307.79405293 -0.13105731 311.51838667 -0.12971213 315.24283923 -0.12095062 C317.23405423 -0.11867254 319.22527288 -0.12627747 321.21647346 -0.13419026 C322.39362517 -0.12959147 323.57077688 -0.12499267 324.78359985 -0.12025452 C326.31072769 -0.12058057 326.31072769 -0.12058057 327.86870658 -0.12091321 C330.60117975 0.13650437 332.22850787 0.63832715 334.51764107 2.12863445 C336.05805131 5.20945493 335.65998052 8.44772638 335.65465546 11.82866001 C335.65730728 12.63681194 335.65995911 13.44496386 335.6626913 14.27760524 C335.67041623 17.01473346 335.67094468 19.75181707 335.67154121 22.4889555 C335.67555372 24.4594863 335.67999158 26.43001627 335.68482077 28.40054524 C335.69681547 33.83825577 335.70244139 39.27595742 335.70700192 44.7136786 C335.71294694 50.56926799 335.72455938 56.42484669 335.73529243 62.28042889 C335.75867917 75.76273279 335.77322633 89.24503917 335.78552185 102.72735724 C335.78977501 107.39037359 335.79435413 112.05338952 335.79910517 116.71640539 C335.82433693 141.49627718 335.84641535 166.27614943 335.85883331 191.05603123 C335.86175476 196.79849405 335.86472226 202.54095684 335.86773872 208.28341961 C335.86810963 208.99686561 335.86848054 209.71031161 335.86886269 210.44537718 C335.88102391 233.58795409 335.91197717 256.73045504 335.95366025 279.87299626 C335.99641477 303.65366922 336.02307002 327.43430205 336.02830803 351.2150145 C336.02904852 354.57134413 336.02995921 357.9276737 336.03096581 361.28400326 C336.03115642 361.94458649 336.03134703 362.60516973 336.03154343 363.28577064 C336.03484361 373.27162744 336.05225542 383.25737212 336.07685661 393.24319363 C336.10478016 404.59643851 336.11589034 415.94953898 336.10466115 427.30281554 C336.09945498 433.09975316 336.10248799 438.89638799 336.12712669 444.69328213 C336.14947119 449.99442796 336.14899535 455.29505093 336.12992282 460.59620501 C336.12710193 462.51949476 336.13283592 464.44281887 336.14773576 466.36605297 C336.16668686 468.97032445 336.15515986 471.5727015 336.13567352 474.17692661 C336.14852274 474.93272398 336.16137196 475.68852136 336.17461056 476.46722168 C336.11410561 480.11904339 335.78993997 481.81962283 333.34473294 484.59450507 C330.1493574 486.32848462 328.28303149 486.62795908 324.66613865 486.62641239 C323.48822929 486.63560998 322.31031993 486.64480757 321.09671634 486.65428388 C319.8066504 486.64399675 318.51658446 486.63370963 317.18742561 486.62311077 C315.80002325 486.6262876 314.41262397 486.63121545 313.02523333 486.63774359 C309.21317292 486.650575 305.40153711 486.63843159 301.5895046 486.62221503 C297.47835261 486.60906361 293.36724819 486.61895738 289.25609016 486.62597942 C281.20279953 486.63606601 273.14967306 486.6247772 265.09640282 486.60627882 C255.72222978 486.58551953 246.34809233 486.58565096 236.97390062 486.58662398 C220.25106001 486.58762543 203.52829588 486.56929631 186.80548286 486.54025555 C170.57011713 486.51207579 154.3348187 486.49791418 138.09942818 486.49923992 C137.09937289 486.49931983 136.09931761 486.49939975 135.06895762 486.49948208 C134.07064878 486.49956279 133.07233994 486.4996435 132.04377931 486.49972665 C113.5716469 486.50110566 95.09954315 486.48933069 76.62742002 486.47142022 C70.08946744 486.46538263 63.55152012 486.46326052 57.01356506 486.46235561 C49.04936403 486.46099258 41.08521128 486.45208044 33.12103074 486.43369 C29.05577367 486.42444414 24.99057844 486.41836664 20.92531013 486.42087841 C17.20651196 486.42306473 13.48785068 486.41605489 9.76908106 486.40158136 C7.78100164 486.39622208 5.79290332 486.40068069 3.80482239 486.40544546 C2.62952077 486.39899656 1.45421916 486.39254767 0.24330235 486.38590336 C-0.77315666 486.38449451 -1.78961566 486.38308566 -2.83687645 486.38163412 C-5.56553542 486.1206799 -7.19546989 485.61632065 -9.48235893 484.12863445 C-11.02325251 481.04684731 -10.62165249 477.80762858 -10.6137867 474.42581558 C-10.61583933 473.61736406 -10.61789196 472.80891254 -10.6200068 471.97596249 C-10.62570955 469.23782147 -10.62421554 466.49973023 -10.62280083 463.76158428 C-10.62538258 461.79034108 -10.62839521 459.81909841 -10.63180423 457.84785646 C-10.63989963 452.40821211 -10.64166521 446.96858093 -10.6424017 441.52893126 C-10.64424782 435.67131832 -10.65179284 429.81371229 -10.65853691 423.95610332 C-10.67284772 410.46953909 -10.67864878 396.98297665 -10.68322886 383.49640623 C-10.68556307 376.83574644 -10.68916549 370.17508746 -10.69292423 363.51442833 C-10.70576015 340.72609508 -10.71647999 317.9377623 -10.71992683 295.14942551 C-10.72014847 293.71842222 -10.72037025 292.28741894 -10.72059219 290.85641566 C-10.72081283 289.42190802 -10.72103331 287.98740038 -10.72125363 286.55289274 C-10.72169619 283.67490105 -10.72214331 280.79690935 -10.72259331 277.91891766 C-10.7227027 277.2053409 -10.72281209 276.49176414 -10.7229248 275.75656385 C-10.72655726 252.60701995 -10.74248424 229.45750733 -10.76578367 206.30797542 C-10.7903574 181.8477525 -10.8040985 157.38754747 -10.80529475 132.92731184 C-10.80546621 130.24433736 -10.80568165 127.56136288 -10.80592918 124.8783884 C-10.80598495 124.21773774 -10.80604072 123.55708708 -10.80609818 122.87641671 C-10.80717923 112.88704316 -10.8165574 102.89770771 -10.83011436 92.90834522 C-10.84547105 81.55253241 -10.8506621 70.1967732 -10.84237626 58.84095199 C-10.83845415 53.04218801 -10.83947501 47.24353216 -10.85343361 41.4447813 C-10.86607935 36.14317887 -10.86505793 30.84176682 -10.8528429 25.540165 C-10.85086961 23.61555246 -10.85403862 21.69092687 -10.86268726 19.76633275 C-10.87365099 17.16308405 -10.8663849 14.56052273 -10.85429573 11.95729446 C-10.86189092 11.19887008 -10.86948612 10.44044569 -10.87731147 9.65903875 C-10.8261297 4.60235258 -10.8261297 4.60235258 -9.08411288 2.2018432 C-5.89497577 0.06505443 -3.82236182 0.00264558 0 0 Z M3.51764107 15.12863445 C3.51764107 88.05863445 3.51764107 160.98863445 3.51764107 236.12863445 C35.52764107 236.12863445 67.53764107 236.12863445 100.51764107 236.12863445 C101.83764107 230.84863445 103.15764107 225.56863445 104.51764107 220.12863445 C108.2656308 211.23805417 112.67231237 204.88003068 119.51764107 198.12863445 C120.15572701 197.48023602 120.79381294 196.83183758 121.45123482 196.1637907 C133.17492163 185.02506955 149.39208603 180.7515951 165.20123482 180.90988445 C182.85681467 182.07444567 197.53795385 189.14661788 209.67779732 201.95675945 C218.18138022 211.99495923 222.37009606 223.24336442 224.51764107 236.12863445 C256.52764107 236.12863445 288.53764107 236.12863445 321.51764107 236.12863445 C321.51764107 163.19863445 321.51764107 90.26863445 321.51764107 15.12863445 C305.67764107 15.12863445 289.83764107 15.12863445 273.51764107 15.12863445 C273.46865669 18.85918133 273.41967232 22.5897282 273.36920357 26.43332195 C273.31524172 30.03411258 273.25791535 33.63483493 273.20025826 37.23556805 C273.16190234 39.74398016 273.12706132 42.25244853 273.09576607 44.76095867 C273.05025898 48.36028474 272.99224107 51.95922128 272.93170357 55.55832195 C272.92015236 56.68543591 272.90860115 57.81254986 272.89669991 58.97381878 C272.87683022 60.01474682 272.85696053 61.05567486 272.83648872 62.12814617 C272.82316505 63.04747936 272.80984138 63.96681255 272.79611397 64.91400433 C272.51764107 67.12863445 272.51764107 67.12863445 270.51764107 69.12863445 C268.26504707 69.40710735 268.26504707 69.40710735 265.42535591 69.44748211 C263.83393272 69.47728664 263.83393272 69.47728664 262.21035957 69.50769329 C261.06137184 69.5192445 259.91238411 69.53079571 258.72857857 69.54269695 C257.55501808 69.5620631 256.3814576 69.58142925 255.17233467 69.60138226 C251.41251145 69.66131109 247.65265784 69.70761691 243.89264107 69.75363445 C241.34835665 69.79180195 238.80408532 69.83085294 236.25982857 69.87082195 C230.01254866 69.9670235 223.76519035 70.05203183 217.51764107 70.12863445 C217.26152046 71.14256268 217.00539986 72.1564909 216.74151802 73.20114422 C216.39246524 74.55335707 216.04308241 75.90548476 215.69342232 77.2575407 C215.52620674 77.92322063 215.35899117 78.58890057 215.18670845 79.27475262 C211.50048367 93.41755393 202.92808845 103.68962359 190.51764107 111.12863445 C176.81051206 118.53048412 161.73031755 120.54380837 146.59576607 116.2341032 C131.54798752 110.82988832 120.25094891 102.74692495 113.04107857 88.13644695 C111.07279056 83.61283768 109.49977172 79.25244036 108.45245552 74.43161297 C108.27624168 73.62474545 108.10002785 72.81787792 107.9184742 71.98655987 C107.78619926 71.37344448 107.65392433 70.76032909 107.51764107 70.12863445 C106.52832085 70.11983509 106.52832085 70.11983509 105.51901436 70.11085796 C98.6735428 70.04707753 91.8285481 69.96269847 84.98346138 69.86618328 C82.42655906 69.83286489 79.86958197 69.8048548 77.31256294 69.78219891 C73.64361798 69.74878022 69.97536266 69.69647033 66.30670357 69.6403532 C65.15771584 69.63396328 64.0087281 69.62757336 62.82492256 69.6209898 C61.76397377 69.60119564 60.70302498 69.58140148 59.60992622 69.5610075 C58.67282814 69.54990444 57.73573006 69.53880138 56.77023506 69.52736187 C56.02687904 69.39578182 55.28352303 69.26420177 54.51764107 69.12863445 C52.34674454 65.87228966 52.25473095 64.88220163 52.19879341 61.10641766 C52.17892372 60.0855859 52.15905403 59.06475414 52.13858223 58.01298809 C52.12703102 56.9129092 52.11547981 55.81283031 52.10357857 54.6794157 C52.08421242 53.55166225 52.06484627 52.42390881 52.04489326 51.26198101 C51.985048 47.65510942 51.93869185 44.04820601 51.89264107 40.44113445 C51.85446589 37.99776105 51.81541443 35.55440118 51.77545357 33.11105633 C51.67769094 27.11698551 51.59816005 21.12306116 51.51764107 15.12863445 C35.67764107 15.12863445 19.83764107 15.12863445 3.51764107 15.12863445 Z M66.51764107 15.12863445 C66.51764107 28.65863445 66.51764107 42.18863445 66.51764107 56.12863445 C129.87764107 56.12863445 193.23764107 56.12863445 258.51764107 56.12863445 C258.51764107 42.59863445 258.51764107 29.06863445 258.51764107 15.12863445 C195.15764107 15.12863445 131.79764107 15.12863445 66.51764107 15.12863445 Z M122.51764107 70.12863445 C124.07321706 81.01766643 128.91988508 89.21578669 137.51764107 96.12863445 C140.40695675 98.09768766 143.3374636 99.6811054 146.51764107 101.12863445 C147.20342232 101.44832195 147.88920357 101.76800945 148.59576607 102.09738445 C158.30344444 105.9804558 169.13930595 105.10188978 178.76764107 101.4528532 C189.59597142 96.23864299 196.87044455 87.44708321 201.66998482 76.64425945 C202.73051856 73.93930197 202.73051856 73.93930197 202.51764107 70.12863445 C176.11764107 70.12863445 149.71764107 70.12863445 122.51764107 70.12863445 Z M126.26373482 210.96457195 C120.42302534 218.2033931 115.51764107 226.64539072 115.51764107 236.12863445 C146.53764107 236.12863445 177.55764107 236.12863445 209.51764107 236.12863445 C207.88367424 223.05689986 202.22147143 213.98678388 192.51764107 205.12863445 C172.05784974 189.77595796 143.76754972 192.11430975 126.26373482 210.96457195 Z M3.51764107 250.12863445 C3.51764107 323.05863445 3.51764107 395.98863445 3.51764107 471.12863445 C19.35764107 471.12863445 35.19764107 471.12863445 51.51764107 471.12863445 C51.56662544 467.39808758 51.61560982 463.6675407 51.66607857 459.82394695 C51.72004042 456.22315633 51.77736678 452.62243398 51.83502388 449.02170086 C51.8733798 446.51328874 51.90822081 444.00482037 51.93951607 441.49631023 C51.98502315 437.89698417 52.04304107 434.29804762 52.10357857 430.69894695 C52.11512978 429.571833 52.12668098 428.44471905 52.13858223 427.28345013 C52.15845192 426.24252209 52.17832161 425.20159405 52.19879341 424.12912273 C52.21211708 423.20978954 52.22544075 422.29045635 52.23916817 421.34326458 C52.51764107 419.12863445 52.51764107 419.12863445 54.51764107 417.12863445 C56.77023506 416.85016155 56.77023506 416.85016155 59.60992622 416.8097868 C61.20134941 416.77998226 61.20134941 416.77998226 62.82492256 416.74957561 C63.97391029 416.73802441 65.12289803 416.7264732 66.30670357 416.71457195 C67.48026405 416.6952058 68.65382454 416.67583965 69.86294746 416.65588665 C73.62277068 416.59595781 77.3826243 416.549652 81.14264107 416.50363445 C83.68692548 416.46546695 86.23119681 416.42641596 88.77545357 416.38644695 C95.02273348 416.2902454 101.27009179 416.20523707 107.51764107 416.12863445 C107.81563354 414.89744129 107.81563354 414.89744129 108.11964607 413.64137554 C108.38416069 412.56297909 108.64867531 411.48458263 108.92120552 410.3735075 C109.18174217 409.30521206 109.44227882 408.23691662 109.71071053 407.13624859 C113.33104261 393.64244538 121.57619753 382.84582905 133.50982857 375.69894695 C148.16104432 368.04987067 163.15864721 365.82304714 179.28717232 370.02707195 C193.68892344 374.93794719 204.48714737 383.66226593 211.51764107 397.12863445 C214.31240772 403.3987586 216.45296637 409.34383873 217.51764107 416.12863445 C218.50696129 416.14076473 218.50696129 416.14076473 219.51626778 416.15314007 C226.36165314 416.23899017 233.20674236 416.33848449 240.05182076 416.44601727 C242.60873643 416.48437425 245.16570732 416.51921507 247.72271919 416.55050945 C251.39154016 416.59601421 255.0599788 416.65403255 258.72857857 416.71457195 C259.8775663 416.72612316 261.02655403 416.73767437 262.21035957 416.74957561 C263.27130836 416.7694453 264.33225716 416.78931499 265.42535591 416.8097868 C266.36245399 416.82311047 267.29955208 416.83643414 268.26504707 416.85016155 C270.51764107 417.12863445 270.51764107 417.12863445 272.51764107 419.12863445 C272.79611397 421.34326458 272.79611397 421.34326458 272.83648872 424.12912273 C272.86629326 425.69051479 272.86629326 425.69051479 272.89669991 427.28345013 C272.91402672 428.97412106 272.91402672 428.97412106 272.93170357 430.69894695 C272.96075279 432.42599361 272.96075279 432.42599361 272.99038887 434.18793011 C273.05031479 437.87642215 273.09662233 441.56494518 273.14264107 445.25363445 C273.18080884 447.74974204 273.21985985 450.2458363 273.25982857 452.7419157 C273.35769424 458.87075375 273.43716103 464.99944445 273.51764107 471.12863445 C289.35764107 471.12863445 305.19764107 471.12863445 321.51764107 471.12863445 C321.51764107 398.19863445 321.51764107 325.26863445 321.51764107 250.12863445 C289.50764107 250.12863445 257.49764107 250.12863445 224.51764107 250.12863445 C223.19764107 255.40863445 221.87764107 260.68863445 220.51764107 266.12863445 C213.09696663 282.13401069 201.94987974 294.2734674 185.51764107 301.12863445 C169.89985581 306.73981478 153.20251993 306.8221945 137.76764107 300.31613445 C136.3388654 299.61099009 134.9221478 298.88095707 133.51764107 298.12863445 C132.71971138 297.72000164 131.92178169 297.31136883 131.09967232 296.8903532 C116.06961474 288.61799593 107.53498289 275.54736753 102.46295357 259.6091032 C101.51764107 256.12863445 101.51764107 256.12863445 100.51764107 250.12863445 C68.50764107 250.12863445 36.49764107 250.12863445 3.51764107 250.12863445 Z M115.51764107 250.12863445 C117.07263572 262.56859166 122.22476138 271.69647674 131.51764107 280.12863445 C142.75912869 288.72602037 154.45499383 292.07648445 168.51764107 291.12863445 C181.94587806 288.81153378 193.27400331 282.27353032 201.59576607 271.41769695 C206.02796722 264.76939523 209.51764107 258.22959115 209.51764107 250.12863445 C178.49764107 250.12863445 147.47764107 250.12863445 115.51764107 250.12863445 Z M130.76764107 396.87863445 C126.17797655 402.35627602 122.51764107 408.90924837 122.51764107 416.12863445 C148.91764107 416.12863445 175.31764107 416.12863445 202.51764107 416.12863445 C200.885207 404.70159599 195.54218218 396.339562 186.51764107 389.12863445 C183.29531714 387.11345022 180.04208646 385.54078597 176.51764107 384.12863445 C175.44514107 383.69550945 174.37264107 383.26238445 173.26764107 382.81613445 C156.00006909 379.65041292 142.69288204 384.36354285 130.76764107 396.87863445 Z M66.51764107 430.12863445 C66.51764107 443.65863445 66.51764107 457.18863445 66.51764107 471.12863445 C129.87764107 471.12863445 193.23764107 471.12863445 258.51764107 471.12863445 C258.51764107 457.59863445 258.51764107 444.06863445 258.51764107 430.12863445 C195.15764107 430.12863445 131.79764107 430.12863445 66.51764107 430.12863445 Z " fill="#000000" transform="translate(93.48235893249512,12.871365547180176)"/>
</svg>
