<?xml version="1.0" encoding="UTF-8"?>
<svg version="1.1" xmlns="http://www.w3.org/2000/svg" width="512" height="512">
<path d="M0 0 C0.81936035 0.19867676 1.6387207 0.39735352 2.48291016 0.60205078 C21.65591053 5.35348117 38.71730074 12.82396831 55 24 C56.07378906 24.73476562 57.14757812 25.46953125 58.25390625 26.2265625 C91.80867825 50.66821119 112.89724777 86.82830113 120.25 127.375 C126.24540666 167.98539605 117.00379043 209.96974218 92.69384766 243.26586914 C89.37282089 247.67052347 85.78274426 251.79770583 82.0078125 255.81640625 C79.93697176 258.01403228 79.93697176 258.01403228 77.96875 260.5703125 C75.03285461 264.19358022 71.5697677 267.01899607 68 270 C67.2575 270.63035156 66.515 271.26070313 65.75 271.91015625 C37.67941605 295.13302422 2.69289806 307.47571505 -33.6875 307.3125 C-34.99750977 307.30758545 -36.30751953 307.3026709 -37.65722656 307.29760742 C-48.02354523 307.17310433 -57.90113516 306.33611746 -68 304 C-68.7513623 303.82839355 -69.50272461 303.65678711 -70.27685547 303.47998047 C-91.08518708 298.56452278 -111.17829164 289.23509787 -128 276 C-129.31871094 274.98679687 -129.31871094 274.98679687 -130.6640625 273.953125 C-162.5772894 248.75363171 -183.18173917 211.95827583 -188.3125 171.5625 C-192.69098036 130.53541334 -181.95301178 88.0935004 -156.02734375 55.640625 C-143.64332567 40.60317291 -129.88927892 27.825927 -113 18 C-112.35724121 17.62246582 -111.71448242 17.24493164 -111.05224609 16.85595703 C-78.58336003 -1.96258325 -36.70990327 -9.20850177 0 0 Z M-114.375 80.0390625 C-135.01537008 103.32090851 -142.26671771 131.14396372 -141.19970703 161.84619141 C-139.84216793 183.2846878 -130.13587189 204.98649807 -116 221 C-115.28972656 221.84175781 -114.57945312 222.68351563 -113.84765625 223.55078125 C-96.23851942 243.94519455 -69.86175676 256.94687209 -43 259 C-12.9976801 260.75568082 15.21224604 251.72360428 38 232 C57.79897345 214.28651842 71.32245783 188.58187312 73.22119141 161.890625 C74.28983253 132.85996565 67.60696716 105.21130815 48 83 C47.28972656 82.15824219 46.57945312 81.31648438 45.84765625 80.44921875 C28.06495248 59.85378503 2.77298663 48.08807028 -24 45 C-58.74361849 42.98576271 -90.16777671 54.91703135 -114.375 80.0390625 Z " fill="#FFFFFF" transform="translate(290,130)"/>
<path d="M0 0 C2.28211943 1.73057393 4.47849559 3.53273027 6.66796875 5.37890625 C7.46976563 6.0234375 8.2715625 6.66796875 9.09765625 7.33203125 C27.38819412 22.71659582 37.59444497 45.85337105 39.66796875 69.37890625 C41.23935711 94.93464332 33.32314059 118.87346789 16.66796875 138.37890625 C16.03117188 139.20777344 15.394375 140.03664063 14.73828125 140.890625 C1.33439522 157.00057859 -21.63870169 167.38614692 -42.33203125 169.37890625 C-69.37963013 171.11391832 -93.17488262 164.80005167 -114.33203125 147.37890625 C-115.55986328 146.44304687 -115.55986328 146.44304687 -116.8125 145.48828125 C-132.14411647 132.65250932 -141.95200107 111.79379963 -145.33203125 92.37890625 C-145.55890625 91.10015625 -145.78578125 89.82140625 -146.01953125 88.50390625 C-148.60958289 62.81922746 -141.89161657 37.50893135 -125.65722656 17.3605957 C-95.12969821 -19.12465779 -39.3344903 -27.34307115 0 0 Z " fill="#FFFFFF" transform="translate(309.33203125,205.62109375)"/>
<path d="M0 0 C2.88608437 2.7974622 3.92103382 4.43386782 4.48101807 8.44856262 C4.49252152 9.78315319 4.48218371 11.11804791 4.45410156 12.45239258 C4.45468567 13.1846405 4.45526978 13.91688843 4.45587158 14.67132568 C4.45309598 17.07955159 4.42203102 19.48652295 4.390625 21.89453125 C4.38316069 23.56889673 4.37746865 25.24327097 4.37347412 26.91764832 C4.35823261 31.31550394 4.31896396 35.71282758 4.2746582 40.11047363 C4.23367327 44.60157068 4.21545625 49.09275405 4.1953125 53.58398438 C4.15246792 62.38956651 4.08423503 71.194717 4 80 C7.63 80 11.26 80 15 80 C14.99111755 79.07149734 14.98223511 78.14299469 14.9730835 77.18635559 C14.8929024 68.43185811 14.83201763 59.67748414 14.79275131 50.92270374 C14.77188529 46.42186112 14.74358588 41.92132216 14.69824219 37.4206543 C14.65474892 33.07641812 14.63085548 28.73247384 14.62049103 24.38803673 C14.61310587 22.73142591 14.5986842 21.07483089 14.57707977 19.4183445 C14.54799848 17.09601065 14.54404581 14.77487951 14.54589844 12.45239258 C14.53151733 11.76906357 14.51713623 11.08573456 14.50231934 10.38169861 C14.53228287 6.90543488 14.96302566 5.05818917 16.8447876 2.09672546 C19.60103499 -0.58472444 21.17468781 -1 25 -1 C27.75923954 0.1914898 29.43163983 1.16224964 31.12643433 3.66033936 C32.344065 6.92150523 32.23888328 9.76831615 32.22705078 13.24707031 C32.22734283 13.96941864 32.22763489 14.69176697 32.22793579 15.43600464 C32.22654562 17.81683483 32.21099934 20.19734967 32.1953125 22.578125 C32.19158125 24.23150461 32.18873481 25.88488643 32.18673706 27.53826904 C32.17910938 31.88499074 32.15946833 36.23157829 32.1373291 40.57824707 C32.11685204 45.01568792 32.10773136 49.4531505 32.09765625 53.890625 C32.07622161 62.59381149 32.04209612 71.29688904 32 80 C34.64 80 37.28 80 40 80 C39.99555878 79.06927673 39.99111755 78.13855347 39.98654175 77.17962646 C39.94600503 68.41006597 39.9160201 59.64052448 39.89637566 50.87089157 C39.88593677 46.36229295 39.87177561 41.85376995 39.84912109 37.34521484 C39.82739652 32.99452216 39.81543217 28.64390222 39.81024551 24.29315948 C39.80654907 22.63296615 39.79933089 20.97277682 39.78853989 19.31261444 C39.77403004 16.98794436 39.77202184 14.66357524 39.77294922 12.33886719 C39.76575867 11.6519429 39.75856812 10.96501862 39.75115967 10.25727844 C39.76664302 6.67237156 39.97445664 4.01313665 42 1 C44.69587803 -1.09679403 46.092944 -0.99510821 49.5625 -0.8125 C54.18705036 0.28057554 54.18705036 0.28057554 56 3 C57.25267615 6.68821849 57.12019247 10.28836484 57.11352539 14.15527344 C57.11367142 14.86786819 57.11381744 15.58046295 57.1139679 16.31465149 C57.11327291 18.66292395 57.10549994 21.01111645 57.09765625 23.359375 C57.0957906 24.99033566 57.09436739 26.62129688 57.09336853 28.2522583 C57.08955494 32.53974969 57.07973454 36.82720708 57.06866455 41.11468506 C57.05842553 45.49181661 57.05386557 49.86895367 57.04882812 54.24609375 C57.03811123 62.83074475 57.02104872 71.41536814 57 80 C60.63 80 64.26 80 68 80 C67.99111755 79.07149734 67.98223511 78.14299469 67.9730835 77.18635559 C67.8929024 68.43185811 67.83201763 59.67748414 67.79275131 50.92270374 C67.77188529 46.42186112 67.74358588 41.92132216 67.69824219 37.4206543 C67.65474892 33.07641812 67.63085548 28.73247384 67.62049103 24.38803673 C67.61310587 22.73142591 67.5986842 21.07483089 67.57707977 19.4183445 C67.54799848 17.09601065 67.54404581 14.77487951 67.54589844 12.45239258 C67.53151733 11.76906357 67.51713623 11.08573456 67.50231934 10.38169861 C67.53228287 6.90543488 67.96302566 5.05818917 69.8447876 2.09672546 C72.60103499 -0.58472444 74.17468781 -1 78 -1 C82.56521739 1.13043478 82.56521739 1.13043478 84 4 C84.11431539 6.89078677 84.16786905 9.75801738 84.17700195 12.6496582 C84.18357315 13.54590408 84.19014435 14.44214996 84.19691467 15.36555481 C84.21668682 18.34396446 84.2283247 21.32232336 84.23828125 24.30078125 C84.24235678 25.31978201 84.2464323 26.33878277 84.25063133 27.38866234 C84.27151796 32.79173964 84.2858032 38.19479142 84.29516602 43.59790039 C84.30617994 49.15467719 84.34051405 54.71104794 84.38033772 60.26768208 C84.40662235 64.55824982 84.41486878 68.84872308 84.41844749 73.13936424 C84.42329021 75.18567811 84.43483731 77.23198842 84.45348549 79.27822304 C84.6016852 96.63172766 82.99451743 111.03547742 70.74609375 124.47265625 C62.90411264 132.01253857 54.77900585 136.46014202 44 138 C44 160.44 44 182.88 44 206 C46.31 206 48.62 206 51 206 C55.05591425 207.10615843 56.8789776 208.38333501 59 212 C59.48186649 214.73558962 59.80278788 217.30500295 60.01147461 220.06176758 C60.08358123 220.87527207 60.15568785 221.68877657 60.22997952 222.52693272 C60.46658 225.23188539 60.68443794 227.93801356 60.90234375 230.64453125 C61.06563091 232.55296551 61.2300921 234.46129964 61.3956604 236.36953735 C61.83451383 241.46513958 62.25733704 246.56195135 62.67668533 251.65919113 C63.10988227 256.89664095 63.55634737 262.13295781 64.00170898 267.36938477 C64.61353131 274.57636317 65.22061005 281.78371055 65.82166004 288.99159527 C66.65854168 299.0215205 67.52910921 309.04731872 68.4453125 319.0703125 C68.73197316 322.24567822 69.0180277 325.42109803 69.3039856 328.5965271 C69.4740066 330.46499196 69.64699787 332.33318933 69.82321167 334.20108032 C72.54786846 363.19646819 72.54786846 363.19646819 64.015625 374.66796875 C56.74338825 383.15642441 49.61597424 388.14628304 38.4375 389.25390625 C28.91259121 389.67332695 20.25481893 386.88510832 12.84765625 380.81640625 C5.62383778 373.71476652 1.37918651 365.46154837 0.86185646 355.28164196 C0.88989404 347.82312312 1.32803265 340.45902842 1.97802734 333.03051758 C2.13414238 331.1768885 2.13414238 331.1768885 2.29341125 329.28581238 C2.5768719 325.9344319 2.86485786 322.58350636 3.15535688 319.23273301 C3.39839743 316.42225588 3.63820091 313.61150623 3.87802184 310.80075282 C4.44404292 304.16730619 5.01522514 297.53431835 5.58984375 290.90161133 C6.18055369 284.08225568 6.76309786 277.26223773 7.34155118 270.44183236 C7.8407293 264.55915894 8.3446744 258.67690733 8.8524605 252.79497069 C9.15471552 249.29348518 9.4552896 245.79187777 9.75138474 242.28986549 C10.08170092 238.38639714 10.42198802 234.48383198 10.76318359 230.58129883 C10.85885117 229.43561432 10.95451874 228.28992981 11.05308533 227.10952759 C11.60303561 220.92339324 12.30687532 214.98655623 14 209 C18.80069996 205.22802146 21.49603051 206 28 206 C28 183.56 28 161.12 28 138 C25.69 137.67 23.38 137.34 21 137 C7.91126459 132.15872402 -1.62058059 123.31770875 -8 111 C-11.89922825 102.17918487 -13.14742071 93.87217028 -13.16113281 84.29833984 C-13.16609772 83.45678848 -13.17106262 82.61523712 -13.17617798 81.7481842 C-13.19069261 78.98576012 -13.19758093 76.22339332 -13.203125 73.4609375 C-13.20888194 71.5323588 -13.2146396 69.60378011 -13.22039795 67.67520142 C-13.23087511 63.64218887 -13.23674033 59.60919609 -13.24023438 55.57617188 C-13.24573534 50.4100487 -13.26981126 45.24418692 -13.29820633 40.07814598 C-13.31682422 36.09930654 -13.32203769 32.12053048 -13.32357025 28.14165115 C-13.32659539 26.23666569 -13.33461922 24.33168131 -13.34775543 22.42673874 C-13.3648104 19.76524539 -13.36293797 17.10439692 -13.35644531 14.44287109 C-13.3656601 13.65833054 -13.37487488 12.87378998 -13.3843689 12.06547546 C-13.3496792 7.52592373 -12.79656385 4.61787411 -10 1 C-6.62771107 -1.55828815 -3.95120002 -1.23475 0 0 Z " fill="#FFFFFF" transform="translate(20,70)"/>
<path d="M0 0 C2.69990662 1.79993774 4.5418865 3.083773 6 6 C6.1045 8.72199192 6.14779534 11.41877562 6.14717102 14.14131165 C6.15084771 14.99295511 6.1545244 15.84459857 6.1583125 16.72204942 C6.16937702 19.59245626 6.17319784 22.46282694 6.17700195 25.33325195 C6.18326446 27.38452266 6.18991107 29.43579223 6.19691467 31.48706055 C6.21434297 37.07180652 6.22488119 42.65654392 6.2331202 48.24131036 C6.23826594 51.72790887 6.24434183 55.21450469 6.25063133 58.7011013 C6.26968757 69.60247336 6.2839184 80.50383862 6.2922433 91.40522414 C6.30202162 104.00295631 6.32835493 116.60051304 6.36874419 129.19818336 C6.3988673 138.92646064 6.41370852 148.65468753 6.41702431 158.38301057 C6.41937894 164.1975969 6.42839311 170.01199591 6.45348549 175.82653236 C6.47670494 181.29549548 6.48102411 186.76414711 6.47072411 192.23314667 C6.47022716 194.24191764 6.47659416 196.25070362 6.49028015 198.25942802 C6.5079048 200.99924103 6.50093961 203.73792475 6.48774719 206.47773743 C6.49871644 207.27501717 6.50968568 208.07229692 6.52098733 208.89373666 C6.47754787 212.62342927 6.12951271 214.79370497 4.12756634 217.98251629 C-0.77362123 222.63011102 -9.15417948 221.16132103 -15.5390625 221.16796875 C-17.21492935 221.17296135 -17.21492935 221.17296135 -18.9246521 221.17805481 C-21.2865152 221.18310896 -23.64838541 221.1854636 -26.01025391 221.18530273 C-29.59159396 221.18747969 -33.17262102 221.20562556 -36.75390625 221.22460938 C-39.05729062 221.22754565 -41.36067645 221.22952888 -43.6640625 221.23046875 C-44.72074127 221.23765427 -45.77742004 221.24483978 -46.86611938 221.25224304 C-67.08029037 221.19131914 -67.08029037 221.19131914 -74 215 C-79.62401656 206.37425222 -75.73006589 190.78885598 -74.875 180.875 C-74.81131226 180.13032471 -74.74762451 179.38564941 -74.68200684 178.6184082 C-72.31803569 151.63294367 -67.70044958 124.99222942 -60 99 C-59.72575195 98.0723584 -59.45150391 97.1447168 -59.16894531 96.18896484 C-53.4567817 77.26102485 -25.85801058 -3.10296127 0 0 Z " fill="#FFFFFF" transform="translate(499,53)"/>
<path d="M0 0 C0.09361108 17.1683004 0.1640611 34.33652068 0.20724869 51.50501823 C0.22783809 59.47739083 0.25588898 67.44960446 0.30175781 75.421875 C0.341737 82.37382847 0.36745912 89.32566677 0.37635398 96.27773201 C0.3815501 99.95584703 0.39368616 103.63363267 0.42292023 107.31164169 C0.45535852 111.42649441 0.45595235 115.54078141 0.45410156 119.65576172 C0.47567322 121.46730492 0.47567322 121.46730492 0.49768066 123.31544495 C0.45681133 131.73531368 -0.9822669 138.55069195 -5.75390625 145.5859375 C-11.92207324 151.68749362 -18.86422762 155.05526735 -27.625 155.4375 C-35.93294146 154.97841589 -43.04651777 151.81080619 -49 146 C-60.58898827 130.81641238 -54.35495854 106.6689267 -52.59375 88.98828125 C-52.34633421 86.43718515 -52.09972575 83.88601063 -51.85388184 81.33476257 C-51.27621216 75.36004692 -50.69054872 69.38616985 -50.10079145 63.4126398 C-49.42846355 56.5980406 -48.76668052 49.78242941 -48.10566616 42.96672499 C-46.74862322 28.97668163 -45.37871724 14.98792282 -44 1 C-42.30472168 1.00785522 -42.30472168 1.00785522 -40.57519531 1.01586914 C-36.37826328 1.03398226 -32.18133469 1.04545512 -27.984375 1.05493164 C-26.16861388 1.05995741 -24.3528568 1.06677903 -22.53710938 1.07543945 C-19.9257711 1.08758189 -17.31448638 1.09324591 -14.703125 1.09765625 C-13.89256653 1.10281754 -13.08200806 1.10797882 -12.24688721 1.11329651 C-8.04607737 1.11371373 -4.09313192 0 0 0 Z M-32.375 119.625 C-34.48706506 122.71186432 -34.61195145 124.3282913 -34 128 C-32.5 130.5 -32.5 130.5 -30 132 C-26.3282913 132.61195145 -24.71186432 132.48706506 -21.625 130.375 C-19.51293494 127.28813568 -19.38804855 125.6717087 -20 122 C-21.5 119.5 -21.5 119.5 -24 118 C-27.6717087 117.38804855 -29.28813568 117.51293494 -32.375 119.625 Z " fill="#FFFFFF" transform="translate(504,287)"/>
</svg>
